<svg width="1920" height="139" viewBox="0 0 1920 139" fill="none" xmlns="http://www.w3.org/2000/svg">
<rect width="1920" height="138.952" fill="url(#paint0_linear_5_19)"/>
<path d="M337.552 70.2442H334.144V73.7002H332.784V70.2442H329.392V69.0122H332.784V65.5402H334.144V69.0122H337.552V70.2442ZM346.362 66.6602C346.127 65.4762 345.397 64.8842 344.17 64.8842C343.221 64.8842 342.511 65.2522 342.042 65.9882C341.573 66.7136 341.343 67.9136 341.354 69.5882C341.599 69.0336 342.005 68.6016 342.57 68.2922C343.146 67.9722 343.786 67.8122 344.49 67.8122C345.589 67.8122 346.463 68.1536 347.114 68.8362C347.775 69.5189 348.106 70.4629 348.106 71.6682C348.106 72.3936 347.962 73.0442 347.674 73.6202C347.397 74.1962 346.97 74.6549 346.394 74.9962C345.829 75.3376 345.141 75.5082 344.33 75.5082C343.231 75.5082 342.373 75.2629 341.754 74.7722C341.135 74.2816 340.703 73.6042 340.458 72.7402C340.213 71.8762 340.09 70.8096 340.09 69.5402C340.09 65.6256 341.455 63.6682 344.186 63.6682C345.231 63.6682 346.053 63.9509 346.65 64.5162C347.247 65.0816 347.599 65.7962 347.706 66.6602H346.362ZM344.186 69.0442C343.727 69.0442 343.295 69.1402 342.89 69.3322C342.485 69.5136 342.154 69.7962 341.898 70.1802C341.653 70.5536 341.53 71.0122 341.53 71.5562C341.53 72.3669 341.765 73.0282 342.234 73.5402C342.703 74.0416 343.375 74.2922 344.25 74.2922C344.997 74.2922 345.589 74.0629 346.026 73.6042C346.474 73.1349 346.698 72.5056 346.698 71.7162C346.698 70.8842 346.485 70.2336 346.058 69.7642C345.631 69.2842 345.007 69.0442 344.186 69.0442ZM350.038 66.8202C350.113 65.8389 350.491 65.0709 351.174 64.5162C351.857 63.9616 352.742 63.6842 353.83 63.6842C354.555 63.6842 355.179 63.8176 355.702 64.0842C356.235 64.3402 356.635 64.6922 356.902 65.1402C357.179 65.5882 357.318 66.0949 357.318 66.6602C357.318 67.3216 357.126 67.8922 356.742 68.3722C356.369 68.8522 355.878 69.1616 355.27 69.3002V69.3802C355.963 69.5509 356.513 69.8869 356.918 70.3882C357.323 70.8896 357.526 71.5456 357.526 72.3562C357.526 72.9642 357.387 73.5136 357.11 74.0042C356.833 74.4842 356.417 74.8629 355.862 75.1402C355.307 75.4176 354.641 75.5562 353.862 75.5562C352.731 75.5562 351.803 75.2629 351.078 74.6762C350.353 74.0789 349.947 73.2362 349.862 72.1482H351.27C351.345 72.7882 351.606 73.3109 352.054 73.7162C352.502 74.1216 353.099 74.3242 353.846 74.3242C354.593 74.3242 355.158 74.1322 355.542 73.7482C355.937 73.3536 356.134 72.8469 356.134 72.2282C356.134 71.4282 355.867 70.8522 355.334 70.5002C354.801 70.1482 353.995 69.9722 352.918 69.9722H352.55V68.7562H352.934C353.915 68.7456 354.657 68.5856 355.158 68.2762C355.659 67.9562 355.91 67.4656 355.91 66.8042C355.91 66.2389 355.723 65.7856 355.35 65.4442C354.987 65.1029 354.465 64.9322 353.782 64.9322C353.121 64.9322 352.587 65.1029 352.182 65.4442C351.777 65.7856 351.537 66.2442 351.462 66.8202H350.038ZM367.742 78.4522C366.718 77.4496 365.918 76.1749 365.342 74.6282C364.776 73.0816 364.494 71.4122 364.494 69.6202C364.494 67.7856 364.792 66.0736 365.39 64.4842C365.998 62.8842 366.862 61.5669 367.982 60.5322H369.502V60.6762C368.307 61.7962 367.406 63.1456 366.798 64.7242C366.2 66.2922 365.902 67.9242 365.902 69.6202C365.902 71.2736 366.184 72.8522 366.75 74.3562C367.326 75.8602 368.163 77.1776 369.262 78.3082V78.4522H367.742ZM372.895 72.3722C373.002 72.9802 373.247 73.4496 373.631 73.7802C374.026 74.1109 374.554 74.2762 375.215 74.2762C376.101 74.2762 376.751 73.9296 377.167 73.2362C377.594 72.5429 377.797 71.3749 377.775 69.7322C377.551 70.2122 377.178 70.5909 376.655 70.8682C376.133 71.1349 375.551 71.2682 374.911 71.2682C374.197 71.2682 373.557 71.1242 372.991 70.8362C372.437 70.5376 371.999 70.1056 371.679 69.5402C371.359 68.9749 371.199 68.2922 371.199 67.4922C371.199 66.3509 371.53 65.4336 372.191 64.7402C372.853 64.0362 373.791 63.6842 375.007 63.6842C376.501 63.6842 377.546 64.1696 378.143 65.1402C378.751 66.1109 379.055 67.5562 379.055 69.4762C379.055 70.8202 378.933 71.9296 378.687 72.8042C378.453 73.6789 378.047 74.3456 377.471 74.8042C376.906 75.2629 376.127 75.4922 375.135 75.4922C374.047 75.4922 373.199 75.1989 372.591 74.6122C371.983 74.0256 371.637 73.2789 371.551 72.3722H372.895ZM375.151 70.0362C375.866 70.0362 376.453 69.8176 376.911 69.3802C377.37 68.9322 377.599 68.3296 377.599 67.5722C377.599 66.7722 377.375 66.1269 376.927 65.6362C376.479 65.1456 375.85 64.9002 375.039 64.9002C374.293 64.9002 373.695 65.1349 373.247 65.6042C372.81 66.0736 372.591 66.6922 372.591 67.4602C372.591 68.2389 372.81 68.8629 373.247 69.3322C373.685 69.8016 374.319 70.0362 375.151 70.0362ZM380.717 65.2362V63.9082H383.725V75.4762H382.253V65.2362H380.717ZM393.346 65.0442L388.898 75.4762H387.426L391.938 65.1882H385.762V63.9402H393.346V65.0442ZM394.737 78.4522V78.3082C395.835 77.1776 396.667 75.8602 397.233 74.3562C397.809 72.8522 398.097 71.2736 398.097 69.6202C398.097 67.9242 397.793 66.2922 397.185 64.7242C396.587 63.1456 395.691 61.7962 394.497 60.6762V60.5322H396.017C397.137 61.5669 397.995 62.8842 398.593 64.4842C399.201 66.0736 399.505 67.7856 399.505 69.6202C399.505 71.4122 399.217 73.0816 398.641 74.6282C398.075 76.1749 397.281 77.4496 396.257 78.4522H394.737ZM406.108 65.2362V63.9082H409.116V75.4762H407.644V65.2362H406.108ZM411.233 65.2362V63.9082H414.241V75.4762H412.769V65.2362H411.233ZM416.39 72.9002V71.7962L422.006 64.0202H423.75V71.6362H425.35V72.9002H423.75V75.4762H422.31V72.9002H416.39ZM422.374 65.5402L418.07 71.6362H422.374V65.5402ZM433.182 69.4602C432.585 69.2256 432.126 68.8842 431.806 68.4362C431.486 67.9882 431.326 67.4442 431.326 66.8042C431.326 66.2282 431.47 65.7109 431.758 65.2522C432.046 64.7829 432.473 64.4149 433.038 64.1482C433.614 63.8709 434.307 63.7322 435.118 63.7322C435.929 63.7322 436.617 63.8709 437.182 64.1482C437.758 64.4149 438.19 64.7829 438.478 65.2522C438.777 65.7109 438.926 66.2282 438.926 66.8042C438.926 67.4229 438.761 67.9669 438.43 68.4362C438.099 68.8949 437.646 69.2362 437.07 69.4602C437.731 69.6629 438.254 70.0202 438.638 70.5322C439.033 71.0336 439.23 71.6416 439.23 72.3562C439.23 73.0496 439.059 73.6576 438.718 74.1802C438.377 74.6922 437.891 75.0922 437.262 75.3802C436.643 75.6576 435.929 75.7962 435.118 75.7962C434.307 75.7962 433.593 75.6576 432.974 75.3802C432.366 75.0922 431.891 74.6922 431.55 74.1802C431.209 73.6576 431.038 73.0496 431.038 72.3562C431.038 71.6416 431.23 71.0282 431.614 70.5162C431.998 70.0042 432.521 69.6522 433.182 69.4602ZM437.518 66.9802C437.518 66.3296 437.305 65.8282 436.878 65.4762C436.451 65.1242 435.865 64.9482 435.118 64.9482C434.382 64.9482 433.801 65.1242 433.374 65.4762C432.947 65.8282 432.734 66.3349 432.734 66.9962C432.734 67.5936 432.953 68.0736 433.39 68.4362C433.838 68.7989 434.414 68.9802 435.118 68.9802C435.833 68.9802 436.409 68.7989 436.846 68.4362C437.294 68.0629 437.518 67.5776 437.518 66.9802ZM435.118 70.1002C434.329 70.1002 433.683 70.2869 433.182 70.6602C432.681 71.0229 432.43 71.5722 432.43 72.3082C432.43 72.9909 432.67 73.5402 433.15 73.9562C433.641 74.3722 434.297 74.5802 435.118 74.5802C435.939 74.5802 436.59 74.3722 437.07 73.9562C437.55 73.5402 437.79 72.9909 437.79 72.3082C437.79 71.5936 437.545 71.0496 437.054 70.6762C436.563 70.2922 435.918 70.1002 435.118 70.1002ZM448.54 65.1722H442.924V68.8202C443.169 68.4789 443.532 68.2016 444.012 67.9882C444.492 67.7642 445.009 67.6522 445.564 67.6522C446.449 67.6522 447.169 67.8389 447.724 68.2122C448.279 68.5749 448.673 69.0496 448.908 69.6362C449.153 70.2122 449.276 70.8256 449.276 71.4762C449.276 72.2442 449.132 72.9322 448.844 73.5402C448.556 74.1482 448.113 74.6282 447.516 74.9802C446.929 75.3322 446.199 75.5082 445.324 75.5082C444.204 75.5082 443.297 75.2202 442.604 74.6442C441.911 74.0682 441.489 73.3002 441.34 72.3402H442.764C442.903 72.9482 443.196 73.4229 443.644 73.7642C444.092 74.1056 444.657 74.2762 445.34 74.2762C446.183 74.2762 446.817 74.0256 447.244 73.5242C447.671 73.0122 447.884 72.3402 447.884 71.5082C447.884 70.6762 447.671 70.0362 447.244 69.5882C446.817 69.1296 446.188 68.9002 445.356 68.9002C444.791 68.9002 444.295 69.0389 443.868 69.3162C443.452 69.5829 443.148 69.9509 442.956 70.4202H441.58V63.8922H448.54V65.1722ZM451.035 74.3082C452.389 73.2202 453.451 72.3296 454.219 71.6362C454.987 70.9322 455.632 70.2016 456.155 69.4442C456.688 68.6762 456.955 67.9242 456.955 67.1882C456.955 66.4949 456.784 65.9509 456.443 65.5562C456.112 65.1509 455.573 64.9482 454.827 64.9482C454.101 64.9482 453.536 65.1776 453.131 65.6362C452.736 66.0842 452.523 66.6869 452.491 67.4442H451.083C451.125 66.2496 451.488 65.3269 452.171 64.6762C452.853 64.0256 453.733 63.7002 454.811 63.7002C455.909 63.7002 456.779 64.0042 457.419 64.6122C458.069 65.2202 458.395 66.0576 458.395 67.1242C458.395 68.0096 458.128 68.8736 457.595 69.7162C457.072 70.5482 456.475 71.2842 455.803 71.9242C455.131 72.5536 454.272 73.2896 453.227 74.1322H458.731V75.3482H451.035V74.3082ZM460.414 69.5722C460.414 67.7376 460.713 66.3082 461.31 65.2842C461.907 64.2496 462.953 63.7322 464.446 63.7322C465.929 63.7322 466.969 64.2496 467.566 65.2842C468.163 66.3082 468.462 67.7376 468.462 69.5722C468.462 71.4389 468.163 72.8896 467.566 73.9242C466.969 74.9589 465.929 75.4762 464.446 75.4762C462.953 75.4762 461.907 74.9589 461.31 73.9242C460.713 72.8896 460.414 71.4389 460.414 69.5722ZM467.022 69.5722C467.022 68.6442 466.958 67.8602 466.83 67.2202C466.713 66.5696 466.462 66.0469 466.078 65.6522C465.705 65.2576 465.161 65.0602 464.446 65.0602C463.721 65.0602 463.166 65.2576 462.782 65.6522C462.409 66.0469 462.158 66.5696 462.03 67.2202C461.913 67.8602 461.854 68.6442 461.854 69.5722C461.854 70.5322 461.913 71.3376 462.03 71.9882C462.158 72.6389 462.409 73.1616 462.782 73.5562C463.166 73.9509 463.721 74.1482 464.446 74.1482C465.161 74.1482 465.705 73.9509 466.078 73.5562C466.462 73.1616 466.713 72.6389 466.83 71.9882C466.958 71.3376 467.022 70.5322 467.022 69.5722ZM480.406 60.4042L476.022 78.1962H474.582L478.95 60.4042H480.406ZM495.661 70.2442H492.253V73.7002H490.893V70.2442H487.501V69.0122H490.893V65.5402H492.253V69.0122H495.661V70.2442ZM504.471 66.6602C504.237 65.4762 503.506 64.8842 502.279 64.8842C501.33 64.8842 500.621 65.2522 500.151 65.9882C499.682 66.7136 499.453 67.9136 499.463 69.5882C499.709 69.0336 500.114 68.6016 500.679 68.2922C501.255 67.9722 501.895 67.8122 502.599 67.8122C503.698 67.8122 504.573 68.1536 505.223 68.8362C505.885 69.5189 506.215 70.4629 506.215 71.6682C506.215 72.3936 506.071 73.0442 505.783 73.6202C505.506 74.1962 505.079 74.6549 504.503 74.9962C503.938 75.3376 503.25 75.5082 502.439 75.5082C501.341 75.5082 500.482 75.2629 499.863 74.7722C499.245 74.2816 498.813 73.6042 498.567 72.7402C498.322 71.8762 498.199 70.8096 498.199 69.5402C498.199 65.6256 499.565 63.6682 502.295 63.6682C503.341 63.6682 504.162 63.9509 504.759 64.5162C505.357 65.0816 505.709 65.7962 505.815 66.6602H504.471ZM502.295 69.0442C501.837 69.0442 501.405 69.1402 500.999 69.3322C500.594 69.5136 500.263 69.7962 500.007 70.1802C499.762 70.5536 499.639 71.0122 499.639 71.5562C499.639 72.3669 499.874 73.0282 500.343 73.5402C500.813 74.0416 501.485 74.2922 502.359 74.2922C503.106 74.2922 503.698 74.0629 504.135 73.6042C504.583 73.1349 504.807 72.5056 504.807 71.7162C504.807 70.8842 504.594 70.2336 504.167 69.7642C503.741 69.2842 503.117 69.0442 502.295 69.0442ZM508.148 66.8202C508.222 65.8389 508.601 65.0709 509.284 64.5162C509.966 63.9616 510.852 63.6842 511.94 63.6842C512.665 63.6842 513.289 63.8176 513.812 64.0842C514.345 64.3402 514.745 64.6922 515.012 65.1402C515.289 65.5882 515.428 66.0949 515.428 66.6602C515.428 67.3216 515.236 67.8922 514.852 68.3722C514.478 68.8522 513.988 69.1616 513.38 69.3002V69.3802C514.073 69.5509 514.622 69.8869 515.028 70.3882C515.433 70.8896 515.635 71.5456 515.635 72.3562C515.635 72.9642 515.497 73.5136 515.22 74.0042C514.942 74.4842 514.526 74.8629 513.972 75.1402C513.417 75.4176 512.75 75.5562 511.972 75.5562C510.841 75.5562 509.913 75.2629 509.188 74.6762C508.462 74.0789 508.057 73.2362 507.972 72.1482H509.38C509.454 72.7882 509.716 73.3109 510.164 73.7162C510.612 74.1216 511.209 74.3242 511.956 74.3242C512.702 74.3242 513.268 74.1322 513.652 73.7482C514.046 73.3536 514.244 72.8469 514.244 72.2282C514.244 71.4282 513.977 70.8522 513.444 70.5002C512.91 70.1482 512.105 69.9722 511.028 69.9722H510.66V68.7562H511.044C512.025 68.7456 512.766 68.5856 513.268 68.2762C513.769 67.9562 514.02 67.4656 514.02 66.8042C514.02 66.2389 513.833 65.7856 513.46 65.4442C513.097 65.1029 512.574 64.9322 511.891 64.9322C511.23 64.9322 510.697 65.1029 510.292 65.4442C509.886 65.7856 509.646 66.2442 509.572 66.8202H508.148ZM525.851 78.4522C524.827 77.4496 524.027 76.1749 523.451 74.6282C522.886 73.0816 522.603 71.4122 522.603 69.6202C522.603 67.7856 522.902 66.0736 523.499 64.4842C524.107 62.8842 524.971 61.5669 526.091 60.5322H527.611V60.6762C526.416 61.7962 525.515 63.1456 524.907 64.7242C524.31 66.2922 524.011 67.9242 524.011 69.6202C524.011 71.2736 524.294 72.8522 524.859 74.3562C525.435 75.8602 526.272 77.1776 527.371 78.3082V78.4522H525.851ZM531.005 72.3722C531.111 72.9802 531.357 73.4496 531.741 73.7802C532.135 74.1109 532.663 74.2762 533.325 74.2762C534.21 74.2762 534.861 73.9296 535.277 73.2362C535.703 72.5429 535.906 71.3749 535.885 69.7322C535.661 70.2122 535.287 70.5909 534.765 70.8682C534.242 71.1349 533.661 71.2682 533.021 71.2682C532.306 71.2682 531.666 71.1242 531.101 70.8362C530.546 70.5376 530.109 70.1056 529.789 69.5402C529.469 68.9749 529.309 68.2922 529.309 67.4922C529.309 66.3509 529.639 65.4336 530.301 64.7402C530.962 64.0362 531.901 63.6842 533.117 63.6842C534.61 63.6842 535.655 64.1696 536.253 65.1402C536.861 66.1109 537.165 67.5562 537.165 69.4762C537.165 70.8202 537.042 71.9296 536.797 72.8042C536.562 73.6789 536.157 74.3456 535.581 74.8042C535.015 75.2629 534.237 75.4922 533.245 75.4922C532.157 75.4922 531.309 75.1989 530.701 74.6122C530.093 74.0256 529.746 73.2789 529.661 72.3722H531.005ZM533.261 70.0362C533.975 70.0362 534.562 69.8176 535.021 69.3802C535.479 68.9322 535.709 68.3296 535.709 67.5722C535.709 66.7722 535.485 66.1269 535.037 65.6362C534.589 65.1456 533.959 64.9002 533.149 64.9002C532.402 64.9002 531.805 65.1349 531.357 65.6042C530.919 66.0736 530.701 66.6922 530.701 67.4602C530.701 68.2389 530.919 68.8629 531.357 69.3322C531.794 69.8016 532.429 70.0362 533.261 70.0362ZM545.659 66.6602C545.424 65.4762 544.693 64.8842 543.467 64.8842C542.517 64.8842 541.808 65.2522 541.339 65.9882C540.869 66.7136 540.64 67.9136 540.651 69.5882C540.896 69.0336 541.301 68.6016 541.867 68.2922C542.443 67.9722 543.083 67.8122 543.787 67.8122C544.885 67.8122 545.76 68.1536 546.411 68.8362C547.072 69.5189 547.403 70.4629 547.403 71.6682C547.403 72.3936 547.259 73.0442 546.971 73.6202C546.693 74.1962 546.267 74.6549 545.691 74.9962C545.125 75.3376 544.437 75.5082 543.627 75.5082C542.528 75.5082 541.669 75.2629 541.051 74.7722C540.432 74.2816 540 73.6042 539.755 72.7402C539.509 71.8762 539.387 70.8096 539.387 69.5402C539.387 65.6256 540.752 63.6682 543.483 63.6682C544.528 63.6682 545.349 63.9509 545.947 64.5162C546.544 65.0816 546.896 65.7962 547.003 66.6602H545.659ZM543.483 69.0442C543.024 69.0442 542.592 69.1402 542.187 69.3322C541.781 69.5136 541.451 69.7962 541.195 70.1802C540.949 70.5536 540.827 71.0122 540.827 71.5562C540.827 72.3669 541.061 73.0282 541.531 73.5402C542 74.0416 542.672 74.2922 543.547 74.2922C544.293 74.2922 544.885 74.0629 545.323 73.6042C545.771 73.1349 545.995 72.5056 545.995 71.7162C545.995 70.8842 545.781 70.2336 545.355 69.7642C544.928 69.2842 544.304 69.0442 543.483 69.0442ZM556.487 65.0442L552.039 75.4762H550.567L555.079 65.1882H548.903V63.9402H556.487V65.0442ZM557.877 78.4522V78.3082C558.976 77.1776 559.808 75.8602 560.373 74.3562C560.949 72.8522 561.237 71.2736 561.237 69.6202C561.237 67.9242 560.933 66.2922 560.325 64.7242C559.728 63.1456 558.832 61.7962 557.637 60.6762V60.5322H559.157C560.277 61.5669 561.136 62.8842 561.733 64.4842C562.341 66.0736 562.645 67.7856 562.645 69.6202C562.645 71.4122 562.357 73.0816 561.781 74.6282C561.216 76.1749 560.421 77.4496 559.397 78.4522H557.877ZM569.457 74.3082C570.811 73.2202 571.873 72.3296 572.641 71.6362C573.409 70.9322 574.054 70.2016 574.577 69.4442C575.11 68.6762 575.377 67.9242 575.377 67.1882C575.377 66.4949 575.206 65.9509 574.865 65.5562C574.534 65.1509 573.995 64.9482 573.249 64.9482C572.523 64.9482 571.958 65.1776 571.553 65.6362C571.158 66.0842 570.945 66.6869 570.913 67.4442H569.505C569.547 66.2496 569.91 65.3269 570.593 64.6762C571.275 64.0256 572.155 63.7002 573.233 63.7002C574.331 63.7002 575.201 64.0042 575.841 64.6122C576.491 65.2202 576.817 66.0576 576.817 67.1242C576.817 68.0096 576.55 68.8736 576.017 69.7162C575.494 70.5482 574.897 71.2842 574.225 71.9242C573.553 72.5536 572.694 73.2896 571.649 74.1322H577.153V75.3482H569.457V74.3082ZM580.708 72.3722C580.814 72.9802 581.06 73.4496 581.444 73.7802C581.838 74.1109 582.366 74.2762 583.028 74.2762C583.913 74.2762 584.564 73.9296 584.98 73.2362C585.406 72.5429 585.609 71.3749 585.588 69.7322C585.364 70.2122 584.99 70.5909 584.468 70.8682C583.945 71.1349 583.364 71.2682 582.724 71.2682C582.009 71.2682 581.369 71.1242 580.804 70.8362C580.249 70.5376 579.812 70.1056 579.492 69.5402C579.172 68.9749 579.012 68.2922 579.012 67.4922C579.012 66.3509 579.342 65.4336 580.004 64.7402C580.665 64.0362 581.604 63.6842 582.82 63.6842C584.313 63.6842 585.358 64.1696 585.956 65.1402C586.564 66.1109 586.868 67.5562 586.868 69.4762C586.868 70.8202 586.745 71.9296 586.5 72.8042C586.265 73.6789 585.86 74.3456 585.284 74.8042C584.718 75.2629 583.94 75.4922 582.948 75.4922C581.86 75.4922 581.012 75.1989 580.404 74.6122C579.796 74.0256 579.449 73.2789 579.364 72.3722H580.708ZM582.964 70.0362C583.678 70.0362 584.265 69.8176 584.724 69.3802C585.182 68.9322 585.412 68.3296 585.412 67.5722C585.412 66.7722 585.188 66.1269 584.74 65.6362C584.292 65.1456 583.662 64.9002 582.852 64.9002C582.105 64.9002 581.508 65.1349 581.06 65.6042C580.622 66.0736 580.404 66.6922 580.404 67.4602C580.404 68.2389 580.622 68.8629 581.06 69.3322C581.497 69.8016 582.132 70.0362 582.964 70.0362ZM588.53 65.2362V63.9082H591.538V75.4762H590.066V65.2362H588.53ZM598.273 66.8202C598.347 65.8389 598.726 65.0709 599.409 64.5162C600.091 63.9616 600.977 63.6842 602.065 63.6842C602.79 63.6842 603.414 63.8176 603.937 64.0842C604.47 64.3402 604.87 64.6922 605.137 65.1402C605.414 65.5882 605.553 66.0949 605.553 66.6602C605.553 67.3216 605.361 67.8922 604.977 68.3722C604.603 68.8522 604.113 69.1616 603.505 69.3002V69.3802C604.198 69.5509 604.747 69.8869 605.153 70.3882C605.558 70.8896 605.76 71.5456 605.76 72.3562C605.76 72.9642 605.622 73.5136 605.345 74.0042C605.067 74.4842 604.651 74.8629 604.097 75.1402C603.542 75.4176 602.875 75.5562 602.097 75.5562C600.966 75.5562 600.038 75.2629 599.312 74.6762C598.587 74.0789 598.182 73.2362 598.097 72.1482H599.505C599.579 72.7882 599.841 73.3109 600.289 73.7162C600.737 74.1216 601.334 74.3242 602.081 74.3242C602.827 74.3242 603.393 74.1322 603.777 73.7482C604.171 73.3536 604.369 72.8469 604.369 72.2282C604.369 71.4282 604.102 70.8522 603.569 70.5002C603.035 70.1482 602.23 69.9722 601.153 69.9722H600.785V68.7562H601.169C602.15 68.7456 602.891 68.5856 603.393 68.2762C603.894 67.9562 604.145 67.4656 604.145 66.8042C604.145 66.2389 603.958 65.7856 603.585 65.4442C603.222 65.1029 602.699 64.9322 602.016 64.9322C601.355 64.9322 600.822 65.1029 600.417 65.4442C600.011 65.7856 599.771 66.2442 599.697 66.8202H598.273ZM607.374 72.9002V71.7962L612.99 64.0202H614.734V71.6362H616.334V72.9002H614.734V75.4762H613.294V72.9002H607.374ZM613.358 65.5402L609.054 71.6362H613.358V65.5402ZM617.437 72.9002V71.7962L623.053 64.0202H624.797V71.6362H626.397V72.9002H624.797V75.4762H623.357V72.9002H617.437ZM623.421 65.5402L619.117 71.6362H623.421V65.5402ZM627.675 74.3082C629.03 73.2202 630.091 72.3296 630.859 71.6362C631.627 70.9322 632.273 70.2016 632.795 69.4442C633.329 68.6762 633.595 67.9242 633.595 67.1882C633.595 66.4949 633.425 65.9509 633.083 65.5562C632.753 65.1509 632.214 64.9482 631.467 64.9482C630.742 64.9482 630.177 65.1776 629.771 65.6362C629.377 66.0842 629.163 66.6869 629.131 67.4442H627.723C627.766 66.2496 628.129 65.3269 628.811 64.6762C629.494 64.0256 630.374 63.7002 631.451 63.7002C632.55 63.7002 633.419 64.0042 634.059 64.6122C634.71 65.2202 635.035 66.0576 635.035 67.1242C635.035 68.0096 634.769 68.8736 634.235 69.7162C633.713 70.5482 633.115 71.2842 632.443 71.9242C631.771 72.5536 630.913 73.2896 629.867 74.1322H635.371V75.3482H627.675V74.3082Z" fill="white"/>
<path d="M298.818 53.4762C296.712 53.4762 295 55.27 295 57.4762V81.4762C295 83.6825 296.712 85.4762 298.818 85.4762H312.182C314.288 85.4762 316 83.6825 316 81.4762V57.4762C316 55.27 314.288 53.4762 312.182 53.4762H298.818ZM303.591 80.4762H307.409C307.934 80.4762 308.364 80.9262 308.364 81.4762C308.364 82.0262 307.934 82.4762 307.409 82.4762H303.591C303.066 82.4762 302.636 82.0262 302.636 81.4762C302.636 80.9262 303.066 80.4762 303.591 80.4762Z" fill="#FFFAFA"/>
<path d="M847.688 70.5602C847.688 69.6642 847.869 68.8802 848.232 68.2082C848.595 67.5256 849.091 66.9976 849.72 66.6242C850.36 66.2509 851.069 66.0642 851.848 66.0642C852.616 66.0642 853.283 66.2296 853.848 66.5602C854.413 66.8909 854.835 67.3069 855.112 67.8082V66.2082H856.584V74.9762H855.112V73.3442C854.824 73.8562 854.392 74.2829 853.816 74.6242C853.251 74.9549 852.589 75.1202 851.832 75.1202C851.053 75.1202 850.349 74.9282 849.72 74.5442C849.091 74.1602 848.595 73.6216 848.232 72.9282C847.869 72.2349 847.688 71.4456 847.688 70.5602ZM855.112 70.5762C855.112 69.9149 854.979 69.3389 854.712 68.8482C854.445 68.3576 854.083 67.9842 853.624 67.7282C853.176 67.4616 852.68 67.3282 852.136 67.3282C851.592 67.3282 851.096 67.4562 850.648 67.7122C850.2 67.9682 849.843 68.3416 849.576 68.8322C849.309 69.3229 849.176 69.8989 849.176 70.5602C849.176 71.2322 849.309 71.8189 849.576 72.3202C849.843 72.8109 850.2 73.1896 850.648 73.4562C851.096 73.7122 851.592 73.8402 852.136 73.8402C852.68 73.8402 853.176 73.7122 853.624 73.4562C854.083 73.1896 854.445 72.8109 854.712 72.3202C854.979 71.8189 855.112 71.2376 855.112 70.5762ZM869.589 66.0482C870.271 66.0482 870.879 66.1922 871.413 66.4802C871.946 66.7576 872.367 67.1789 872.677 67.7442C872.986 68.3096 873.141 68.9976 873.141 69.8082V74.9762H871.701V70.0162C871.701 69.1416 871.482 68.4749 871.045 68.0162C870.618 67.5469 870.037 67.3122 869.301 67.3122C868.543 67.3122 867.941 67.5576 867.493 68.0482C867.045 68.5282 866.821 69.2269 866.821 70.1442V74.9762H865.381V70.0162C865.381 69.1416 865.162 68.4749 864.725 68.0162C864.298 67.5469 863.717 67.3122 862.981 67.3122C862.223 67.3122 861.621 67.5576 861.173 68.0482C860.725 68.5282 860.501 69.2269 860.501 70.1442V74.9762H859.045V66.2082H860.501V67.4722C860.789 67.0136 861.173 66.6616 861.653 66.4162C862.143 66.1709 862.682 66.0482 863.269 66.0482C864.005 66.0482 864.655 66.2136 865.221 66.5442C865.786 66.8749 866.207 67.3602 866.485 68.0002C866.73 67.3816 867.135 66.9016 867.701 66.5602C868.266 66.2189 868.895 66.0482 869.589 66.0482ZM874.985 70.5602C874.985 69.6642 875.166 68.8802 875.529 68.2082C875.892 67.5256 876.388 66.9976 877.017 66.6242C877.657 66.2509 878.366 66.0642 879.145 66.0642C879.913 66.0642 880.58 66.2296 881.145 66.5602C881.71 66.8909 882.132 67.3069 882.409 67.8082V66.2082H883.881V74.9762H882.409V73.3442C882.121 73.8562 881.689 74.2829 881.113 74.6242C880.548 74.9549 879.886 75.1202 879.129 75.1202C878.35 75.1202 877.646 74.9282 877.017 74.5442C876.388 74.1602 875.892 73.6216 875.529 72.9282C875.166 72.2349 874.985 71.4456 874.985 70.5602ZM882.409 70.5762C882.409 69.9149 882.276 69.3389 882.009 68.8482C881.742 68.3576 881.38 67.9842 880.921 67.7282C880.473 67.4616 879.977 67.3282 879.433 67.3282C878.889 67.3282 878.393 67.4562 877.945 67.7122C877.497 67.9682 877.14 68.3416 876.873 68.8322C876.606 69.3229 876.473 69.8989 876.473 70.5602C876.473 71.2322 876.606 71.8189 876.873 72.3202C877.14 72.8109 877.497 73.1896 877.945 73.4562C878.393 73.7122 878.889 73.8402 879.433 73.8402C879.977 73.8402 880.473 73.7122 880.921 73.4562C881.38 73.1896 881.742 72.8109 882.009 72.3202C882.276 71.8189 882.409 71.2376 882.409 70.5762ZM885.797 70.5602C885.797 69.6642 885.979 68.8802 886.341 68.2082C886.704 67.5256 887.2 66.9976 887.829 66.6242C888.469 66.2509 889.184 66.0642 889.973 66.0642C890.656 66.0642 891.291 66.2242 891.877 66.5442C892.464 66.8536 892.912 67.2642 893.221 67.7762V63.1362H894.693V74.9762H893.221V73.3282C892.933 73.8509 892.507 74.2829 891.941 74.6242C891.376 74.9549 890.715 75.1202 889.957 75.1202C889.179 75.1202 888.469 74.9282 887.829 74.5442C887.2 74.1602 886.704 73.6216 886.341 72.9282C885.979 72.2349 885.797 71.4456 885.797 70.5602ZM893.221 70.5762C893.221 69.9149 893.088 69.3389 892.821 68.8482C892.555 68.3576 892.192 67.9842 891.733 67.7282C891.285 67.4616 890.789 67.3282 890.245 67.3282C889.701 67.3282 889.205 67.4562 888.757 67.7122C888.309 67.9682 887.952 68.3416 887.685 68.8322C887.419 69.3229 887.285 69.8989 887.285 70.5602C887.285 71.2322 887.419 71.8189 887.685 72.3202C887.952 72.8109 888.309 73.1896 888.757 73.4562C889.205 73.7122 889.701 73.8402 890.245 73.8402C890.789 73.8402 891.285 73.7122 891.733 73.4562C892.192 73.1896 892.555 72.8109 892.821 72.3202C893.088 71.8189 893.221 71.2376 893.221 70.5762ZM900.978 75.1202C900.157 75.1202 899.41 74.9336 898.738 74.5602C898.077 74.1869 897.554 73.6589 897.17 72.9762C896.797 72.2829 896.61 71.4829 896.61 70.5762C896.61 69.6802 896.802 68.8909 897.186 68.2082C897.581 67.5149 898.114 66.9869 898.786 66.6242C899.458 66.2509 900.21 66.0642 901.042 66.0642C901.874 66.0642 902.626 66.2509 903.298 66.6242C903.97 66.9869 904.498 67.5096 904.882 68.1922C905.277 68.8749 905.474 69.6696 905.474 70.5762C905.474 71.4829 905.271 72.2829 904.866 72.9762C904.471 73.6589 903.933 74.1869 903.25 74.5602C902.567 74.9336 901.81 75.1202 900.978 75.1202ZM900.978 73.8402C901.501 73.8402 901.991 73.7176 902.45 73.4722C902.909 73.2269 903.277 72.8589 903.554 72.3682C903.842 71.8776 903.986 71.2802 903.986 70.5762C903.986 69.8722 903.847 69.2749 903.57 68.7842C903.293 68.2936 902.93 67.9309 902.482 67.6962C902.034 67.4509 901.549 67.3282 901.026 67.3282C900.493 67.3282 900.002 67.4509 899.554 67.6962C899.117 67.9309 898.765 68.2936 898.498 68.7842C898.231 69.2749 898.098 69.8722 898.098 70.5762C898.098 71.2909 898.226 71.8936 898.482 72.3842C898.749 72.8749 899.101 73.2429 899.538 73.4882C899.975 73.7229 900.455 73.8402 900.978 73.8402ZM908.844 67.6322C909.1 67.1309 909.463 66.7416 909.932 66.4642C910.412 66.1869 910.994 66.0482 911.676 66.0482V67.5522H911.292C909.66 67.5522 908.844 68.4376 908.844 70.2082V74.9762H907.388V66.2082H908.844V67.6322ZM916.461 75.1202C915.789 75.1202 915.186 75.0082 914.653 74.7842C914.12 74.5496 913.698 74.2296 913.389 73.8242C913.08 73.4082 912.909 72.9336 912.877 72.4002H914.381C914.424 72.8376 914.626 73.1949 914.989 73.4722C915.362 73.7496 915.848 73.8882 916.445 73.8882C917 73.8882 917.437 73.7656 917.757 73.5202C918.077 73.2749 918.237 72.9656 918.237 72.5922C918.237 72.2082 918.066 71.9256 917.725 71.7442C917.384 71.5522 916.856 71.3656 916.141 71.1842C915.49 71.0136 914.957 70.8429 914.541 70.6722C914.136 70.4909 913.784 70.2296 913.485 69.8882C913.197 69.5362 913.053 69.0776 913.053 68.5122C913.053 68.0642 913.186 67.6536 913.453 67.2802C913.72 66.9069 914.098 66.6136 914.589 66.4002C915.08 66.1762 915.64 66.0642 916.269 66.0642C917.24 66.0642 918.024 66.3096 918.621 66.8002C919.218 67.2909 919.538 67.9629 919.581 68.8162H918.125C918.093 68.3576 917.906 67.9896 917.565 67.7122C917.234 67.4349 916.786 67.2962 916.221 67.2962C915.698 67.2962 915.282 67.4082 914.973 67.6322C914.664 67.8562 914.509 68.1496 914.509 68.5122C914.509 68.8002 914.6 69.0402 914.781 69.2322C914.973 69.4136 915.208 69.5629 915.485 69.6802C915.773 69.7869 916.168 69.9096 916.669 70.0482C917.298 70.2189 917.81 70.3896 918.205 70.5602C918.6 70.7202 918.936 70.9656 919.213 71.2962C919.501 71.6269 919.65 72.0589 919.661 72.5922C919.661 73.0722 919.528 73.5042 919.261 73.8882C918.994 74.2722 918.616 74.5762 918.125 74.8002C917.645 75.0136 917.09 75.1202 916.461 75.1202ZM921.172 70.5602C921.172 69.6642 921.354 68.8802 921.716 68.2082C922.079 67.5256 922.575 66.9976 923.204 66.6242C923.844 66.2509 924.554 66.0642 925.332 66.0642C926.1 66.0642 926.767 66.2296 927.332 66.5602C927.898 66.8909 928.319 67.3069 928.596 67.8082V66.2082H930.068V74.9762H928.596V73.3442C928.308 73.8562 927.876 74.2829 927.3 74.6242C926.735 74.9549 926.074 75.1202 925.316 75.1202C924.538 75.1202 923.834 74.9282 923.204 74.5442C922.575 74.1602 922.079 73.6216 921.716 72.9282C921.354 72.2349 921.172 71.4456 921.172 70.5602ZM928.596 70.5762C928.596 69.9149 928.463 69.3389 928.196 68.8482C927.93 68.3576 927.567 67.9842 927.108 67.7282C926.66 67.4616 926.164 67.3282 925.62 67.3282C925.076 67.3282 924.58 67.4562 924.132 67.7122C923.684 67.9682 923.327 68.3416 923.06 68.8322C922.794 69.3229 922.66 69.8989 922.66 70.5602C922.66 71.2322 922.794 71.8189 923.06 72.3202C923.327 72.8109 923.684 73.1896 924.132 73.4562C924.58 73.7122 925.076 73.8402 925.62 73.8402C926.164 73.8402 926.66 73.7122 927.108 73.4562C927.567 73.1896 927.93 72.8109 928.196 72.3202C928.463 71.8189 928.596 71.2376 928.596 70.5762ZM936.145 66.0642C936.902 66.0642 937.564 66.2296 938.129 66.5602C938.705 66.8909 939.132 67.3069 939.409 67.8082V66.2082H940.881V75.1682C940.881 75.9682 940.71 76.6776 940.369 77.2962C940.028 77.9256 939.537 78.4162 938.897 78.7682C938.268 79.1202 937.532 79.2962 936.689 79.2962C935.537 79.2962 934.577 79.0242 933.809 78.4802C933.041 77.9362 932.588 77.1949 932.449 76.2562H933.889C934.049 76.7896 934.38 77.2162 934.881 77.5362C935.382 77.8669 935.985 78.0322 936.689 78.0322C937.489 78.0322 938.14 77.7816 938.641 77.2802C939.153 76.7789 939.409 76.0749 939.409 75.1682V73.3282C939.121 73.8402 938.694 74.2669 938.129 74.6082C937.564 74.9496 936.902 75.1202 936.145 75.1202C935.366 75.1202 934.657 74.9282 934.017 74.5442C933.388 74.1602 932.892 73.6216 932.529 72.9282C932.166 72.2349 931.985 71.4456 931.985 70.5602C931.985 69.6642 932.166 68.8802 932.529 68.2082C932.892 67.5256 933.388 66.9976 934.017 66.6242C934.657 66.2509 935.366 66.0642 936.145 66.0642ZM939.409 70.5762C939.409 69.9149 939.276 69.3389 939.009 68.8482C938.742 68.3576 938.38 67.9842 937.921 67.7282C937.473 67.4616 936.977 67.3282 936.433 67.3282C935.889 67.3282 935.393 67.4562 934.945 67.7122C934.497 67.9682 934.14 68.3416 933.873 68.8322C933.606 69.3229 933.473 69.8989 933.473 70.5602C933.473 71.2322 933.606 71.8189 933.873 72.3202C934.14 72.8109 934.497 73.1896 934.945 73.4562C935.393 73.7122 935.889 73.8402 936.433 73.8402C936.977 73.8402 937.473 73.7122 937.921 73.4562C938.38 73.1896 938.742 72.8109 939.009 72.3202C939.276 71.8189 939.409 71.2376 939.409 70.5762ZM942.797 70.5602C942.797 69.6642 942.979 68.8802 943.341 68.2082C943.704 67.5256 944.2 66.9976 944.829 66.6242C945.469 66.2509 946.179 66.0642 946.957 66.0642C947.725 66.0642 948.392 66.2296 948.957 66.5602C949.523 66.8909 949.944 67.3069 950.221 67.8082V66.2082H951.693V74.9762H950.221V73.3442C949.933 73.8562 949.501 74.2829 948.925 74.6242C948.36 74.9549 947.699 75.1202 946.941 75.1202C946.163 75.1202 945.459 74.9282 944.829 74.5442C944.2 74.1602 943.704 73.6216 943.341 72.9282C942.979 72.2349 942.797 71.4456 942.797 70.5602ZM950.221 70.5762C950.221 69.9149 950.088 69.3389 949.821 68.8482C949.555 68.3576 949.192 67.9842 948.733 67.7282C948.285 67.4616 947.789 67.3282 947.245 67.3282C946.701 67.3282 946.205 67.4562 945.757 67.7122C945.309 67.9682 944.952 68.3416 944.685 68.8322C944.419 69.3229 944.285 69.8989 944.285 70.5602C944.285 71.2322 944.419 71.8189 944.685 72.3202C944.952 72.8109 945.309 73.1896 945.757 73.4562C946.205 73.7122 946.701 73.8402 947.245 73.8402C947.789 73.8402 948.285 73.7122 948.733 73.4562C949.192 73.1896 949.555 72.8109 949.821 72.3202C950.088 71.8189 950.221 71.2376 950.221 70.5762ZM961.706 66.2082L956.426 79.1042H954.922L956.65 74.8802L953.114 66.2082H954.73L957.482 73.3122L960.202 66.2082H961.706ZM966.274 75.1202C965.602 75.1202 964.999 75.0082 964.466 74.7842C963.932 74.5496 963.511 74.2296 963.202 73.8242C962.892 73.4082 962.722 72.9336 962.69 72.4002H964.194C964.236 72.8376 964.439 73.1949 964.802 73.4722C965.175 73.7496 965.66 73.8882 966.258 73.8882C966.812 73.8882 967.25 73.7656 967.57 73.5202C967.89 73.2749 968.05 72.9656 968.05 72.5922C968.05 72.2082 967.879 71.9256 967.538 71.7442C967.196 71.5522 966.668 71.3656 965.954 71.1842C965.303 71.0136 964.77 70.8429 964.354 70.6722C963.948 70.4909 963.596 70.2296 963.298 69.8882C963.01 69.5362 962.866 69.0776 962.866 68.5122C962.866 68.0642 962.999 67.6536 963.266 67.2802C963.532 66.9069 963.911 66.6136 964.402 66.4002C964.892 66.1762 965.452 66.0642 966.082 66.0642C967.052 66.0642 967.836 66.3096 968.434 66.8002C969.031 67.2909 969.351 67.9629 969.394 68.8162H967.938C967.906 68.3576 967.719 67.9896 967.378 67.7122C967.047 67.4349 966.599 67.2962 966.034 67.2962C965.511 67.2962 965.095 67.4082 964.786 67.6322C964.476 67.8562 964.322 68.1496 964.322 68.5122C964.322 68.8002 964.412 69.0402 964.594 69.2322C964.786 69.4136 965.02 69.5629 965.298 69.6802C965.586 69.7869 965.98 69.9096 966.482 70.0482C967.111 70.2189 967.623 70.3896 968.018 70.5602C968.412 70.7202 968.748 70.9656 969.026 71.2962C969.314 71.6269 969.463 72.0589 969.474 72.5922C969.474 73.0722 969.34 73.5042 969.074 73.8882C968.807 74.2722 968.428 74.5762 967.938 74.8002C967.458 75.0136 966.903 75.1202 966.274 75.1202ZM970.985 70.5602C970.985 69.6642 971.166 68.8802 971.529 68.2082C971.892 67.5256 972.388 66.9976 973.017 66.6242C973.657 66.2509 974.366 66.0642 975.145 66.0642C975.913 66.0642 976.58 66.2296 977.145 66.5602C977.71 66.8909 978.132 67.3069 978.409 67.8082V66.2082H979.881V74.9762H978.409V73.3442C978.121 73.8562 977.689 74.2829 977.113 74.6242C976.548 74.9549 975.886 75.1202 975.129 75.1202C974.35 75.1202 973.646 74.9282 973.017 74.5442C972.388 74.1602 971.892 73.6216 971.529 72.9282C971.166 72.2349 970.985 71.4456 970.985 70.5602ZM978.409 70.5762C978.409 69.9149 978.276 69.3389 978.009 68.8482C977.742 68.3576 977.38 67.9842 976.921 67.7282C976.473 67.4616 975.977 67.3282 975.433 67.3282C974.889 67.3282 974.393 67.4562 973.945 67.7122C973.497 67.9682 973.14 68.3416 972.873 68.8322C972.606 69.3229 972.473 69.8989 972.473 70.5602C972.473 71.2322 972.606 71.8189 972.873 72.3202C973.14 72.8109 973.497 73.1896 973.945 73.4562C974.393 73.7122 974.889 73.8402 975.433 73.8402C975.977 73.8402 976.473 73.7122 976.921 73.4562C977.38 73.1896 977.742 72.8109 978.009 72.3202C978.276 71.8189 978.409 71.2376 978.409 70.5762ZM989.893 66.2082L984.613 79.1042H983.109L984.837 74.8802L981.301 66.2082H982.917L985.669 73.3122L988.389 66.2082H989.893ZM999.357 64.7202C1000.54 64.7202 1001.57 64.9442 1002.45 65.3922C1003.32 65.8402 1003.99 66.4696 1004.46 67.2802C1004.93 68.0802 1005.17 69.0082 1005.17 70.0642C1005.17 70.9069 1005.03 71.7176 1004.75 72.4962C1004.47 73.2642 1004.07 73.8882 1003.53 74.3682C1003.01 74.8482 1002.4 75.0882 1001.69 75.0882C1001.16 75.0882 1000.75 74.9549 1000.46 74.6882C1000.17 74.4216 1000.01 74.0589 999.965 73.6002C999.634 74.0589 999.213 74.4216 998.701 74.6882C998.2 74.9549 997.666 75.0882 997.101 75.0882C996.29 75.0882 995.65 74.8429 995.181 74.3522C994.722 73.8509 994.493 73.1789 994.493 72.3362C994.493 71.5362 994.658 70.7896 994.989 70.0962C995.33 69.4029 995.8 68.8482 996.397 68.4322C996.994 68.0056 997.672 67.7922 998.429 67.7922C999.442 67.7922 1000.13 68.1762 1000.48 68.9442L1000.65 67.9522H1001.92L1001.12 72.5762C1001.09 72.7789 1001.07 72.9656 1001.07 73.1362C1001.07 73.7762 1001.35 74.0962 1001.92 74.0962C1002.34 74.0962 1002.71 73.8936 1003.02 73.4882C1003.34 73.0829 1003.58 72.5762 1003.74 71.9682C1003.9 71.3496 1003.98 70.7416 1003.98 70.1442C1003.98 68.7469 1003.56 67.6642 1002.72 66.8962C1001.89 66.1282 1000.71 65.7442 999.181 65.7442C997.912 65.7442 996.765 66.0536 995.741 66.6722C994.728 67.2802 993.933 68.1176 993.357 69.1842C992.781 70.2509 992.493 71.4296 992.493 72.7202C992.482 74.1282 992.904 75.2109 993.757 75.9682C994.61 76.7362 995.794 77.1202 997.309 77.1202C998.312 77.1202 999.197 76.9389 999.965 76.5762L1000.16 77.5682C999.208 77.9629 998.162 78.1602 997.021 78.1602C995.88 78.1602 994.872 77.9416 993.997 77.5042C993.133 77.0776 992.461 76.4589 991.981 75.6482C991.512 74.8482 991.277 73.9149 991.277 72.8482C991.277 71.3442 991.624 69.9736 992.317 68.7362C993.01 67.4882 993.97 66.5069 995.197 65.7922C996.434 65.0776 997.821 64.7202 999.357 64.7202ZM997.533 73.9522C998.013 73.9522 998.456 73.8136 998.861 73.5362C999.266 73.2482 999.586 72.8642 999.821 72.3842C1000.06 71.8936 1000.17 71.3602 1000.17 70.7842C1000.17 70.2296 1000.02 69.7816 999.709 69.4402C999.41 69.0882 998.984 68.9122 998.429 68.9122C997.917 68.9122 997.464 69.0669 997.069 69.3762C996.685 69.6749 996.386 70.0749 996.173 70.5762C995.96 71.0669 995.853 71.5789 995.853 72.1122C995.853 72.6776 995.997 73.1256 996.285 73.4562C996.573 73.7869 996.989 73.9522 997.533 73.9522ZM1011.18 66.0642C1011.93 66.0642 1012.59 66.2296 1013.16 66.5602C1013.74 66.8909 1014.16 67.3069 1014.44 67.8082V66.2082H1015.91V75.1682C1015.91 75.9682 1015.74 76.6776 1015.4 77.2962C1015.06 77.9256 1014.57 78.4162 1013.93 78.7682C1013.3 79.1202 1012.56 79.2962 1011.72 79.2962C1010.57 79.2962 1009.61 79.0242 1008.84 78.4802C1008.07 77.9362 1007.62 77.1949 1007.48 76.2562H1008.92C1009.08 76.7896 1009.41 77.2162 1009.91 77.5362C1010.41 77.8669 1011.02 78.0322 1011.72 78.0322C1012.52 78.0322 1013.17 77.7816 1013.67 77.2802C1014.18 76.7789 1014.44 76.0749 1014.44 75.1682V73.3282C1014.15 73.8402 1013.73 74.2669 1013.16 74.6082C1012.59 74.9496 1011.93 75.1202 1011.18 75.1202C1010.4 75.1202 1009.69 74.9282 1009.05 74.5442C1008.42 74.1602 1007.92 73.6216 1007.56 72.9282C1007.2 72.2349 1007.02 71.4456 1007.02 70.5602C1007.02 69.6642 1007.2 68.8802 1007.56 68.2082C1007.92 67.5256 1008.42 66.9976 1009.05 66.6242C1009.69 66.2509 1010.4 66.0642 1011.18 66.0642ZM1014.44 70.5762C1014.44 69.9149 1014.31 69.3389 1014.04 68.8482C1013.77 68.3576 1013.41 67.9842 1012.95 67.7282C1012.5 67.4616 1012.01 67.3282 1011.46 67.3282C1010.92 67.3282 1010.42 67.4562 1009.98 67.7122C1009.53 67.9682 1009.17 68.3416 1008.9 68.8322C1008.64 69.3229 1008.5 69.8989 1008.5 70.5602C1008.5 71.2322 1008.64 71.8189 1008.9 72.3202C1009.17 72.8109 1009.53 73.1896 1009.98 73.4562C1010.42 73.7122 1010.92 73.8402 1011.46 73.8402C1012.01 73.8402 1012.5 73.7122 1012.95 73.4562C1013.41 73.1896 1013.77 72.8109 1014.04 72.3202C1014.31 71.8189 1014.44 71.2376 1014.44 70.5762ZM1028.92 66.0482C1029.6 66.0482 1030.21 66.1922 1030.74 66.4802C1031.27 66.7576 1031.7 67.1789 1032 67.7442C1032.31 68.3096 1032.47 68.9976 1032.47 69.8082V74.9762H1031.03V70.0162C1031.03 69.1416 1030.81 68.4749 1030.37 68.0162C1029.95 67.5469 1029.36 67.3122 1028.63 67.3122C1027.87 67.3122 1027.27 67.5576 1026.82 68.0482C1026.37 68.5282 1026.15 69.2269 1026.15 70.1442V74.9762H1024.71V70.0162C1024.71 69.1416 1024.49 68.4749 1024.05 68.0162C1023.63 67.5469 1023.04 67.3122 1022.31 67.3122C1021.55 67.3122 1020.95 67.5576 1020.5 68.0482C1020.05 68.5282 1019.83 69.2269 1019.83 70.1442V74.9762H1018.37V66.2082H1019.83V67.4722C1020.12 67.0136 1020.5 66.6616 1020.98 66.4162C1021.47 66.1709 1022.01 66.0482 1022.6 66.0482C1023.33 66.0482 1023.98 66.2136 1024.55 66.5442C1025.11 66.8749 1025.54 67.3602 1025.81 68.0002C1026.06 67.3816 1026.46 66.9016 1027.03 66.5602C1027.59 66.2189 1028.22 66.0482 1028.92 66.0482ZM1034.31 70.5602C1034.31 69.6642 1034.49 68.8802 1034.86 68.2082C1035.22 67.5256 1035.72 66.9976 1036.35 66.6242C1036.99 66.2509 1037.69 66.0642 1038.47 66.0642C1039.24 66.0642 1039.91 66.2296 1040.47 66.5602C1041.04 66.8909 1041.46 67.3069 1041.74 67.8082V66.2082H1043.21V74.9762H1041.74V73.3442C1041.45 73.8562 1041.02 74.2829 1040.44 74.6242C1039.88 74.9549 1039.21 75.1202 1038.46 75.1202C1037.68 75.1202 1036.97 74.9282 1036.35 74.5442C1035.72 74.1602 1035.22 73.6216 1034.86 72.9282C1034.49 72.2349 1034.31 71.4456 1034.31 70.5602ZM1041.74 70.5762C1041.74 69.9149 1041.6 69.3389 1041.34 68.8482C1041.07 68.3576 1040.71 67.9842 1040.25 67.7282C1039.8 67.4616 1039.31 67.3282 1038.76 67.3282C1038.22 67.3282 1037.72 67.4562 1037.27 67.7122C1036.83 67.9682 1036.47 68.3416 1036.2 68.8322C1035.93 69.3229 1035.8 69.8989 1035.8 70.5602C1035.8 71.2322 1035.93 71.8189 1036.2 72.3202C1036.47 72.8109 1036.83 73.1896 1037.27 73.4562C1037.72 73.7122 1038.22 73.8402 1038.76 73.8402C1039.31 73.8402 1039.8 73.7122 1040.25 73.4562C1040.71 73.1896 1041.07 72.8109 1041.34 72.3202C1041.6 71.8189 1041.74 71.2376 1041.74 70.5762ZM1046.42 64.7842C1046.14 64.7842 1045.91 64.6882 1045.72 64.4962C1045.53 64.3042 1045.43 64.0696 1045.43 63.7922C1045.43 63.5149 1045.53 63.2802 1045.72 63.0882C1045.91 62.8962 1046.14 62.8002 1046.42 62.8002C1046.69 62.8002 1046.91 62.8962 1047.09 63.0882C1047.29 63.2802 1047.38 63.5149 1047.38 63.7922C1047.38 64.0696 1047.29 64.3042 1047.09 64.4962C1046.91 64.6882 1046.69 64.7842 1046.42 64.7842ZM1047.13 66.2082V74.9762H1045.67V66.2082H1047.13ZM1051.06 63.1362V74.9762H1049.61V63.1362H1051.06ZM1054.01 75.0722C1053.73 75.0722 1053.5 74.9762 1053.3 74.7842C1053.11 74.5922 1053.02 74.3576 1053.02 74.0802C1053.02 73.8029 1053.11 73.5682 1053.3 73.3762C1053.5 73.1842 1053.73 73.0882 1054.01 73.0882C1054.28 73.0882 1054.5 73.1842 1054.68 73.3762C1054.87 73.5682 1054.97 73.8029 1054.97 74.0802C1054.97 74.3576 1054.87 74.5922 1054.68 74.7842C1054.5 74.9762 1054.28 75.0722 1054.01 75.0722ZM1056.36 70.5762C1056.36 69.6696 1056.54 68.8802 1056.9 68.2082C1057.27 67.5256 1057.77 66.9976 1058.41 66.6242C1059.06 66.2509 1059.8 66.0642 1060.63 66.0642C1061.71 66.0642 1062.59 66.3256 1063.29 66.8482C1063.99 67.3709 1064.46 68.0962 1064.68 69.0242H1063.11C1062.96 68.4909 1062.67 68.0696 1062.23 67.7602C1061.81 67.4509 1061.27 67.2962 1060.63 67.2962C1059.8 67.2962 1059.13 67.5842 1058.62 68.1602C1058.1 68.7256 1057.85 69.5309 1057.85 70.5762C1057.85 71.6322 1058.1 72.4482 1058.62 73.0242C1059.13 73.6002 1059.8 73.8882 1060.63 73.8882C1061.27 73.8882 1061.81 73.7389 1062.23 73.4402C1062.66 73.1416 1062.95 72.7149 1063.11 72.1602H1064.68C1064.45 73.0562 1063.98 73.7762 1063.27 74.3202C1062.57 74.8536 1061.69 75.1202 1060.63 75.1202C1059.8 75.1202 1059.06 74.9336 1058.41 74.5602C1057.77 74.1869 1057.27 73.6589 1056.9 72.9762C1056.54 72.2936 1056.36 71.4936 1056.36 70.5762ZM1070.45 75.1202C1069.63 75.1202 1068.88 74.9336 1068.21 74.5602C1067.55 74.1869 1067.02 73.6589 1066.64 72.9762C1066.27 72.2829 1066.08 71.4829 1066.08 70.5762C1066.08 69.6802 1066.27 68.8909 1066.65 68.2082C1067.05 67.5149 1067.58 66.9869 1068.25 66.6242C1068.93 66.2509 1069.68 66.0642 1070.51 66.0642C1071.34 66.0642 1072.09 66.2509 1072.77 66.6242C1073.44 66.9869 1073.97 67.5096 1074.35 68.1922C1074.75 68.8749 1074.94 69.6696 1074.94 70.5762C1074.94 71.4829 1074.74 72.2829 1074.33 72.9762C1073.94 73.6589 1073.4 74.1869 1072.72 74.5602C1072.04 74.9336 1071.28 75.1202 1070.45 75.1202ZM1070.45 73.8402C1070.97 73.8402 1071.46 73.7176 1071.92 73.4722C1072.38 73.2269 1072.75 72.8589 1073.02 72.3682C1073.31 71.8776 1073.45 71.2802 1073.45 70.5762C1073.45 69.8722 1073.32 69.2749 1073.04 68.7842C1072.76 68.2936 1072.4 67.9309 1071.95 67.6962C1071.5 67.4509 1071.02 67.3282 1070.49 67.3282C1069.96 67.3282 1069.47 67.4509 1069.02 67.6962C1068.59 67.9309 1068.23 68.2936 1067.97 68.7842C1067.7 69.2749 1067.57 69.8722 1067.57 70.5762C1067.57 71.2909 1067.69 71.8936 1067.95 72.3842C1068.22 72.8749 1068.57 73.2429 1069.01 73.4882C1069.44 73.7229 1069.92 73.8402 1070.45 73.8402ZM1087.4 66.0482C1088.08 66.0482 1088.69 66.1922 1089.23 66.4802C1089.76 66.7576 1090.18 67.1789 1090.49 67.7442C1090.8 68.3096 1090.95 68.9976 1090.95 69.8082V74.9762H1089.51V70.0162C1089.51 69.1416 1089.29 68.4749 1088.86 68.0162C1088.43 67.5469 1087.85 67.3122 1087.11 67.3122C1086.36 67.3122 1085.75 67.5576 1085.31 68.0482C1084.86 68.5282 1084.63 69.2269 1084.63 70.1442V74.9762H1083.19V70.0162C1083.19 69.1416 1082.97 68.4749 1082.54 68.0162C1082.11 67.5469 1081.53 67.3122 1080.79 67.3122C1080.04 67.3122 1079.43 67.5576 1078.99 68.0482C1078.54 68.5282 1078.31 69.2269 1078.31 70.1442V74.9762H1076.86V66.2082H1078.31V67.4722C1078.6 67.0136 1078.99 66.6616 1079.47 66.4162C1079.96 66.1709 1080.49 66.0482 1081.08 66.0482C1081.82 66.0482 1082.47 66.2136 1083.03 66.5442C1083.6 66.8749 1084.02 67.3602 1084.3 68.0002C1084.54 67.3816 1084.95 66.9016 1085.51 66.5602C1086.08 66.2189 1086.71 66.0482 1087.4 66.0482Z" fill="white"/>
<path d="M804.812 58.9762C803.26 58.9762 802 60.2487 802 61.8171C802 62.7108 802.416 63.5513 803.125 64.0899L815.875 73.749C816.543 74.252 817.457 74.252 818.125 73.749L830.875 64.0899C831.584 63.5513 832 62.7108 832 61.8171C832 60.2487 830.74 58.9762 829.188 58.9762H804.812ZM802 65.605V77.9156C802 80.0049 803.682 81.7035 805.75 81.7035H828.25C830.318 81.7035 832 80.0049 832 77.9156V65.605L819.25 75.2641C817.914 76.2762 816.086 76.2762 814.75 75.2641L802 65.605Z" fill="white"/>
<path d="M1305 75H1303.54L1297.69 66.12V75H1296.23V63.832H1297.69L1303.54 72.696V63.832H1305V75ZM1311.31 75.144C1310.48 75.144 1309.74 74.9573 1309.07 74.584C1308.4 74.2107 1307.88 73.6827 1307.5 73C1307.12 72.3067 1306.94 71.5067 1306.94 70.6C1306.94 69.704 1307.13 68.9147 1307.51 68.232C1307.91 67.5387 1308.44 67.0107 1309.11 66.648C1309.79 66.2747 1310.54 66.088 1311.37 66.088C1312.2 66.088 1312.95 66.2747 1313.63 66.648C1314.3 67.0107 1314.83 67.5333 1315.21 68.216C1315.6 68.8987 1315.8 69.6933 1315.8 70.6C1315.8 71.5067 1315.6 72.3067 1315.19 73C1314.8 73.6827 1314.26 74.2107 1313.58 74.584C1312.9 74.9573 1312.14 75.144 1311.31 75.144ZM1311.31 73.864C1311.83 73.864 1312.32 73.7413 1312.78 73.496C1313.24 73.2507 1313.6 72.8827 1313.88 72.392C1314.17 71.9013 1314.31 71.304 1314.31 70.6C1314.31 69.896 1314.18 69.2987 1313.9 68.808C1313.62 68.3173 1313.26 67.9547 1312.81 67.72C1312.36 67.4747 1311.88 67.352 1311.35 67.352C1310.82 67.352 1310.33 67.4747 1309.88 67.72C1309.44 67.9547 1309.09 68.3173 1308.83 68.808C1308.56 69.2987 1308.43 69.896 1308.43 70.6C1308.43 71.3147 1308.55 71.9173 1308.81 72.408C1309.08 72.8987 1309.43 73.2667 1309.87 73.512C1310.3 73.7467 1310.78 73.864 1311.31 73.864ZM1319.17 67.656C1319.43 67.1547 1319.79 66.7653 1320.26 66.488C1320.74 66.2107 1321.32 66.072 1322 66.072V67.576H1321.62C1319.99 67.576 1319.17 68.4613 1319.17 70.232V75H1317.72V66.232H1319.17V67.656ZM1325.14 67.864C1325.44 67.3413 1325.88 66.9147 1326.45 66.584C1327.03 66.2533 1327.69 66.088 1328.42 66.088C1329.21 66.088 1329.92 66.2747 1330.55 66.648C1331.18 67.0213 1331.67 67.5493 1332.04 68.232C1332.4 68.904 1332.58 69.688 1332.58 70.584C1332.58 71.4693 1332.4 72.2587 1332.04 72.952C1331.67 73.6453 1331.17 74.184 1330.53 74.568C1329.9 74.952 1329.2 75.144 1328.42 75.144C1327.66 75.144 1327 74.9787 1326.42 74.648C1325.86 74.3173 1325.43 73.896 1325.14 73.384V75H1323.69V63.16H1325.14V67.864ZM1331.09 70.584C1331.09 69.9227 1330.96 69.3467 1330.69 68.856C1330.43 68.3653 1330.06 67.992 1329.61 67.736C1329.16 67.48 1328.66 67.352 1328.12 67.352C1327.58 67.352 1327.09 67.4853 1326.63 67.752C1326.18 68.008 1325.82 68.3867 1325.54 68.888C1325.27 69.3787 1325.14 69.9493 1325.14 70.6C1325.14 71.2613 1325.27 71.8427 1325.54 72.344C1325.82 72.8347 1326.18 73.2133 1326.63 73.48C1327.09 73.736 1327.58 73.864 1328.12 73.864C1328.66 73.864 1329.16 73.736 1329.61 73.48C1330.06 73.2133 1330.43 72.8347 1330.69 72.344C1330.96 71.8427 1331.09 71.256 1331.09 70.584ZM1342.5 70.28C1342.5 70.5573 1342.48 70.8507 1342.45 71.16H1335.44C1335.49 72.024 1335.79 72.7013 1336.32 73.192C1336.87 73.672 1337.52 73.912 1338.29 73.912C1338.92 73.912 1339.44 73.768 1339.86 73.48C1340.28 73.1813 1340.58 72.7867 1340.75 72.296H1342.32C1342.09 73.1387 1341.62 73.8267 1340.91 74.36C1340.21 74.8827 1339.33 75.144 1338.29 75.144C1337.46 75.144 1336.71 74.9573 1336.05 74.584C1335.4 74.2107 1334.89 73.6827 1334.51 73C1334.14 72.3067 1333.95 71.5067 1333.95 70.6C1333.95 69.6933 1334.13 68.8987 1334.5 68.216C1334.86 67.5333 1335.37 67.0107 1336.02 66.648C1336.68 66.2747 1337.44 66.088 1338.29 66.088C1339.12 66.088 1339.86 66.2693 1340.5 66.632C1341.14 66.9947 1341.63 67.496 1341.97 68.136C1342.32 68.7653 1342.5 69.48 1342.5 70.28ZM1340.99 69.976C1340.99 69.4213 1340.87 68.9467 1340.63 68.552C1340.38 68.1467 1340.04 67.8427 1339.62 67.64C1339.2 67.4267 1338.74 67.32 1338.23 67.32C1337.49 67.32 1336.86 67.5547 1336.34 68.024C1335.83 68.4933 1335.53 69.144 1335.46 69.976H1340.99ZM1345.88 67.656C1346.13 67.1547 1346.49 66.7653 1346.96 66.488C1347.44 66.2107 1348.02 66.072 1348.71 66.072V67.576H1348.32C1346.69 67.576 1345.88 68.4613 1345.88 70.232V75H1344.42V66.232H1345.88V67.656ZM1352.16 67.432V72.6C1352.16 73.0267 1352.25 73.3307 1352.44 73.512C1352.62 73.6827 1352.93 73.768 1353.38 73.768H1354.45V75H1353.14C1352.33 75 1351.72 74.8133 1351.32 74.44C1350.91 74.0667 1350.71 73.4533 1350.71 72.6V67.432H1349.57V66.232H1350.71V64.024H1352.16V66.232H1354.45V67.432H1352.16ZM1364.02 75.112C1363.28 75.112 1362.62 74.984 1362.03 74.728C1361.46 74.4613 1361 74.0987 1360.67 73.64C1360.34 73.1707 1360.17 72.632 1360.16 72.024H1361.71C1361.77 72.5467 1361.98 72.9893 1362.35 73.352C1362.74 73.704 1363.29 73.88 1364.02 73.88C1364.71 73.88 1365.26 73.7093 1365.65 73.368C1366.06 73.016 1366.26 72.568 1366.26 72.024C1366.26 71.5973 1366.14 71.2507 1365.91 70.984C1365.67 70.7173 1365.38 70.5147 1365.03 70.376C1364.67 70.2373 1364.2 70.088 1363.6 69.928C1362.87 69.736 1362.27 69.544 1361.83 69.352C1361.39 69.16 1361.01 68.8613 1360.69 68.456C1360.38 68.04 1360.23 67.4853 1360.23 66.792C1360.23 66.184 1360.38 65.6453 1360.69 65.176C1361 64.7067 1361.43 64.344 1361.99 64.088C1362.55 63.832 1363.2 63.704 1363.92 63.704C1364.97 63.704 1365.82 63.9653 1366.48 64.488C1367.15 65.0107 1367.53 65.704 1367.62 66.568H1366.02C1365.96 66.1413 1365.74 65.768 1365.35 65.448C1364.95 65.1173 1364.43 64.952 1363.78 64.952C1363.17 64.952 1362.67 65.112 1362.29 65.432C1361.91 65.7413 1361.71 66.1787 1361.71 66.744C1361.71 67.1493 1361.83 67.48 1362.05 67.736C1362.28 67.992 1362.57 68.1893 1362.9 68.328C1363.24 68.456 1363.71 68.6053 1364.32 68.776C1365.06 68.9787 1365.65 69.1813 1366.1 69.384C1366.55 69.576 1366.93 69.88 1367.25 70.296C1367.57 70.7013 1367.73 71.256 1367.73 71.96C1367.73 72.504 1367.59 73.016 1367.3 73.496C1367.01 73.976 1366.58 74.3653 1366.02 74.664C1365.45 74.9627 1364.79 75.112 1364.02 75.112ZM1369.33 70.584C1369.33 69.688 1369.51 68.904 1369.87 68.232C1370.24 67.5493 1370.73 67.0213 1371.36 66.648C1372 66.2747 1372.71 66.088 1373.49 66.088C1374.26 66.088 1374.92 66.2533 1375.49 66.584C1376.05 66.9147 1376.48 67.3307 1376.75 67.832V66.232H1378.22V75H1376.75V73.368C1376.46 73.88 1376.03 74.3067 1375.46 74.648C1374.89 74.9787 1374.23 75.144 1373.47 75.144C1372.69 75.144 1371.99 74.952 1371.36 74.568C1370.73 74.184 1370.24 73.6453 1369.87 72.952C1369.51 72.2587 1369.33 71.4693 1369.33 70.584ZM1376.75 70.6C1376.75 69.9387 1376.62 69.3627 1376.35 68.872C1376.09 68.3813 1375.72 68.008 1375.26 67.752C1374.82 67.4853 1374.32 67.352 1373.78 67.352C1373.23 67.352 1372.74 67.48 1372.29 67.736C1371.84 67.992 1371.48 68.3653 1371.22 68.856C1370.95 69.3467 1370.82 69.9227 1370.82 70.584C1370.82 71.256 1370.95 71.8427 1371.22 72.344C1371.48 72.8347 1371.84 73.2133 1372.29 73.48C1372.74 73.736 1373.23 73.864 1373.78 73.864C1374.32 73.864 1374.82 73.736 1375.26 73.48C1375.72 73.2133 1376.09 72.8347 1376.35 72.344C1376.62 71.8427 1376.75 71.2613 1376.75 70.6ZM1384.3 66.088C1385.06 66.088 1385.72 66.2533 1386.29 66.584C1386.86 66.9147 1387.29 67.3307 1387.57 67.832V66.232H1389.04V75.192C1389.04 75.992 1388.87 76.7013 1388.53 77.32C1388.18 77.9493 1387.69 78.44 1387.05 78.792C1386.42 79.144 1385.69 79.32 1384.85 79.32C1383.69 79.32 1382.73 79.048 1381.97 78.504C1381.2 77.96 1380.74 77.2187 1380.61 76.28H1382.05C1382.21 76.8133 1382.54 77.24 1383.04 77.56C1383.54 77.8907 1384.14 78.056 1384.85 78.056C1385.65 78.056 1386.3 77.8053 1386.8 77.304C1387.31 76.8027 1387.57 76.0987 1387.57 75.192V73.352C1387.28 73.864 1386.85 74.2907 1386.29 74.632C1385.72 74.9733 1385.06 75.144 1384.3 75.144C1383.52 75.144 1382.81 74.952 1382.17 74.568C1381.54 74.184 1381.05 73.6453 1380.69 72.952C1380.32 72.2587 1380.14 71.4693 1380.14 70.584C1380.14 69.688 1380.32 68.904 1380.69 68.232C1381.05 67.5493 1381.54 67.0213 1382.17 66.648C1382.81 66.2747 1383.52 66.088 1384.3 66.088ZM1387.57 70.6C1387.57 69.9387 1387.43 69.3627 1387.17 68.872C1386.9 68.3813 1386.54 68.008 1386.08 67.752C1385.63 67.4853 1385.13 67.352 1384.59 67.352C1384.05 67.352 1383.55 67.48 1383.1 67.736C1382.65 67.992 1382.3 68.3653 1382.03 68.856C1381.76 69.3467 1381.63 69.9227 1381.63 70.584C1381.63 71.256 1381.76 71.8427 1382.03 72.344C1382.3 72.8347 1382.65 73.2133 1383.1 73.48C1383.55 73.736 1384.05 73.864 1384.59 73.864C1385.13 73.864 1385.63 73.736 1386.08 73.48C1386.54 73.2133 1386.9 72.8347 1387.17 72.344C1387.43 71.8427 1387.57 71.2613 1387.57 70.6ZM1390.95 70.584C1390.95 69.688 1391.13 68.904 1391.5 68.232C1391.86 67.5493 1392.36 67.0213 1392.99 66.648C1393.63 66.2747 1394.33 66.088 1395.11 66.088C1395.88 66.088 1396.55 66.2533 1397.11 66.584C1397.68 66.9147 1398.1 67.3307 1398.38 67.832V66.232H1399.85V75H1398.38V73.368C1398.09 73.88 1397.66 74.3067 1397.08 74.648C1396.52 74.9787 1395.85 75.144 1395.1 75.144C1394.32 75.144 1393.61 74.952 1392.99 74.568C1392.36 74.184 1391.86 73.6453 1391.5 72.952C1391.13 72.2587 1390.95 71.4693 1390.95 70.584ZM1398.38 70.6C1398.38 69.9387 1398.24 69.3627 1397.98 68.872C1397.71 68.3813 1397.35 68.008 1396.89 67.752C1396.44 67.4853 1395.95 67.352 1395.4 67.352C1394.86 67.352 1394.36 67.48 1393.91 67.736C1393.47 67.992 1393.11 68.3653 1392.84 68.856C1392.57 69.3467 1392.44 69.9227 1392.44 70.584C1392.44 71.256 1392.57 71.8427 1392.84 72.344C1393.11 72.8347 1393.47 73.2133 1393.91 73.48C1394.36 73.736 1394.86 73.864 1395.4 73.864C1395.95 73.864 1396.44 73.736 1396.89 73.48C1397.35 73.2133 1397.71 72.8347 1397.98 72.344C1398.24 71.8427 1398.38 71.2613 1398.38 70.6ZM1409.86 66.232L1404.58 79.128H1403.08L1404.81 74.904L1401.27 66.232H1402.89L1405.64 73.336L1408.36 66.232H1409.86ZM1414.43 75.144C1413.76 75.144 1413.16 75.032 1412.62 74.808C1412.09 74.5733 1411.67 74.2533 1411.36 73.848C1411.05 73.432 1410.88 72.9573 1410.85 72.424H1412.35C1412.39 72.8613 1412.6 73.2187 1412.96 73.496C1413.33 73.7733 1413.82 73.912 1414.41 73.912C1414.97 73.912 1415.41 73.7893 1415.73 73.544C1416.05 73.2987 1416.21 72.9893 1416.21 72.616C1416.21 72.232 1416.04 71.9493 1415.69 71.768C1415.35 71.576 1414.82 71.3893 1414.11 71.208C1413.46 71.0373 1412.93 70.8667 1412.51 70.696C1412.1 70.5147 1411.75 70.2533 1411.45 69.912C1411.17 69.56 1411.02 69.1013 1411.02 68.536C1411.02 68.088 1411.16 67.6773 1411.42 67.304C1411.69 66.9307 1412.07 66.6373 1412.56 66.424C1413.05 66.2 1413.61 66.088 1414.24 66.088C1415.21 66.088 1415.99 66.3333 1416.59 66.824C1417.19 67.3147 1417.51 67.9867 1417.55 68.84H1416.09C1416.06 68.3813 1415.88 68.0133 1415.53 67.736C1415.2 67.4587 1414.76 67.32 1414.19 67.32C1413.67 67.32 1413.25 67.432 1412.94 67.656C1412.63 67.88 1412.48 68.1733 1412.48 68.536C1412.48 68.824 1412.57 69.064 1412.75 69.256C1412.94 69.4373 1413.18 69.5867 1413.45 69.704C1413.74 69.8107 1414.14 69.9333 1414.64 70.072C1415.27 70.2427 1415.78 70.4133 1416.17 70.584C1416.57 70.744 1416.9 70.9893 1417.18 71.32C1417.47 71.6507 1417.62 72.0827 1417.63 72.616C1417.63 73.096 1417.5 73.528 1417.23 73.912C1416.96 74.296 1416.58 74.6 1416.09 74.824C1415.61 75.0373 1415.06 75.144 1414.43 75.144ZM1419.14 70.584C1419.14 69.688 1419.32 68.904 1419.69 68.232C1420.05 67.5493 1420.54 67.0213 1421.17 66.648C1421.81 66.2747 1422.52 66.088 1423.3 66.088C1424.07 66.088 1424.74 66.2533 1425.3 66.584C1425.87 66.9147 1426.29 67.3307 1426.57 67.832V66.232H1428.04V75H1426.57V73.368C1426.28 73.88 1425.85 74.3067 1425.27 74.648C1424.7 74.9787 1424.04 75.144 1423.29 75.144C1422.51 75.144 1421.8 74.952 1421.17 74.568C1420.54 74.184 1420.05 73.6453 1419.69 72.952C1419.32 72.2587 1419.14 71.4693 1419.14 70.584ZM1426.57 70.6C1426.57 69.9387 1426.43 69.3627 1426.17 68.872C1425.9 68.3813 1425.54 68.008 1425.08 67.752C1424.63 67.4853 1424.13 67.352 1423.59 67.352C1423.05 67.352 1422.55 67.48 1422.1 67.736C1421.65 67.992 1421.3 68.3653 1421.03 68.856C1420.76 69.3467 1420.63 69.9227 1420.63 70.584C1420.63 71.256 1420.76 71.8427 1421.03 72.344C1421.3 72.8347 1421.65 73.2133 1422.1 73.48C1422.55 73.736 1423.05 73.864 1423.59 73.864C1424.13 73.864 1424.63 73.736 1425.08 73.48C1425.54 73.2133 1425.9 72.8347 1426.17 72.344C1426.43 71.8427 1426.57 71.2613 1426.57 70.6ZM1438.05 66.232L1432.77 79.128H1431.27L1432.99 74.904L1429.46 66.232H1431.07L1433.83 73.336L1436.55 66.232H1438.05Z" fill="white"/>
<path d="M1274.5 52H1244.49C1243.12 52 1242 53.1313 1242 54.52V84.4324C1242 85.8212 1243.12 86.9524 1244.49 86.9524H1274.5C1275.88 86.9524 1277 85.8212 1277 84.4324V54.52C1277 53.1313 1275.88 52 1274.5 52ZM1252.58 81.9592H1247.39V65.2788H1252.59V81.9592H1252.58ZM1249.98 63.0007C1248.32 63.0007 1246.98 61.6509 1246.98 59.9969C1246.98 58.3429 1248.32 56.9932 1249.98 56.9932C1251.64 56.9932 1252.99 58.3429 1252.99 59.9969C1252.99 61.6587 1251.65 63.0007 1249.98 63.0007ZM1272.02 81.9592H1266.84V73.8453C1266.84 71.9104 1266.8 69.4216 1264.14 69.4216C1261.44 69.4216 1261.02 71.5281 1261.02 73.7048V81.9592H1255.84V65.2788H1260.81V67.557H1260.88C1261.58 66.2462 1263.27 64.8653 1265.8 64.8653C1271.05 64.8653 1272.02 68.3215 1272.02 72.8154V81.9592Z" fill="white"/>
<defs>
<linearGradient id="paint0_linear_5_19" x1="960" y1="0" x2="960" y2="138.952" gradientUnits="userSpaceOnUse">
<stop stop-color="#00A1FC" stop-opacity="0.1"/>
<stop offset="1" stop-color="#D9D9D9" stop-opacity="0"/>
<stop offset="1" stop-color="#0486CF"/>
</linearGradient>
</defs>
</svg>
