<svg width="30" height="24" viewBox="0 0 30 24" fill="none" xmlns="http://www.w3.org/2000/svg">
<path d="M2.8125 0.976227C1.25977 0.976227 0 2.24872 0 3.81714C0 4.71084 0.416016 5.55127 1.125 6.08986L13.875 15.749C14.543 16.252 15.457 16.252 16.125 15.749L28.875 6.08986C29.584 5.55127 30 4.71084 30 3.81714C30 2.24872 28.7402 0.976227 27.1875 0.976227H2.8125ZM0 7.60501V19.9156C0 22.0049 1.68164 23.7035 3.75 23.7035H26.25C28.3184 23.7035 30 22.0049 30 19.9156V7.60501L17.25 17.2641C15.9141 18.2762 14.0859 18.2762 12.75 17.2641L0 7.60501Z" fill="white"/>
</svg>
