<svg width="35" height="35" viewBox="0 0 35 35" fill="none" xmlns="http://www.w3.org/2000/svg">
<path d="M32.5 0H2.49219C1.11719 0 0 1.13127 0 2.52001V32.4324C0 33.8212 1.11719 34.9524 2.49219 34.9524H32.5C33.875 34.9524 35 33.8212 35 32.4324V2.52001C35 1.13127 33.875 0 32.5 0ZM10.5781 29.9592H5.39062V13.2788H10.5859V29.9592H10.5781ZM7.98437 11.0007C6.32031 11.0007 4.97656 9.65093 4.97656 7.99693C4.97656 6.34293 6.32031 4.99321 7.98437 4.99321C9.64062 4.99321 10.9922 6.34293 10.9922 7.99693C10.9922 9.65873 9.64844 11.0007 7.98437 11.0007ZM30.0234 29.9592H24.8359V21.8453C24.8359 19.9104 24.7969 17.4216 22.1406 17.4216C19.4375 17.4216 19.0234 19.5281 19.0234 21.7048V29.9592H13.8359V13.2788H18.8125V15.557H18.8828C19.5781 14.2462 21.2734 12.8653 23.7969 12.8653C29.0469 12.8653 30.0234 16.3215 30.0234 20.8154V29.9592Z" fill="white"/>
</svg>
