<svg width="21" height="33" viewBox="0 0 21 33" fill="none" xmlns="http://www.w3.org/2000/svg">
<path d="M3.81818 0.476227C1.71222 0.476227 0 2.26998 0 4.47623V28.4762C0 30.6825 1.71222 32.4762 3.81818 32.4762H17.1818C19.2878 32.4762 21 30.6825 21 28.4762V4.47623C21 2.26998 19.2878 0.476227 17.1818 0.476227H3.81818ZM8.59091 27.4762H12.4091C12.9341 27.4762 13.3636 27.9262 13.3636 28.4762C13.3636 29.0262 12.9341 29.4762 12.4091 29.4762H8.59091C8.06591 29.4762 7.63636 29.0262 7.63636 28.4762C7.63636 27.9262 8.06591 27.4762 8.59091 27.4762Z" fill="#FFFAFA"/>
</svg>
