<svg xmlns="http://www.w3.org/2000/svg"><symbol viewBox="0 0 15 23" id="icon-arrow-down"><title>icon-arrow-down</title> <g id="icon-arrow-down-Desktop-HD-(scroll)" transform="translate(-1342.000000, -951.000000)"> <g id="icon-arrow-down-Feature-text" transform="translate(411.000000, 665.000000)"> <g id="icon-arrow-down-more-link" transform="translate(932.000000, 279.000000)"> <path d="M13.359375,23.140625 C13.4531255,23.2343755 13.5,23.3749991 13.5,23.5625 C13.5,23.7500009 13.4531255,23.8906245 13.359375,23.984375 C9.28122961,27.6875185 7.21875023,29.5624998 7.171875,29.609375 C7.07812453,29.7031255 6.93750094,29.75 6.75,29.75 C6.56249906,29.75 6.42187547,29.7031255 6.328125,29.609375 L0.140625,23.984375 C-0.140626406,23.7031236 -0.140626406,23.4218764 0.140625,23.140625 C0.421876406,22.8593736 0.703123594,22.8593736 0.984375,23.140625 L6.1875,27.8515625 L6.1875,7.8125 C6.1875,7.43749812 6.37499812,7.25 6.75,7.25 C7.12500187,7.25 7.3125,7.43749812 7.3125,7.8125 L7.3125,27.8515625 L12.515625,23.140625 C12.7968764,22.8593736 13.0781236,22.8593736 13.359375,23.140625 Z" id="icon-arrow-down-ion-ios-arrow-thin-down---Ionicons"/> </g> </g> </g> </symbol><symbol viewBox="0 0 23 15" id="icon-arrow-left"><title>icon-arrow-left</title> <g id="icon-arrow-left-Desktop-HD" transform="translate(-1339.000000, -3880.000000)"> <g id="icon-arrow-left-gallery" transform="translate(100.000000, 3475.000000)"> <g id="icon-arrow-left-gallery-arrows" transform="translate(1200.000000, 266.000000)"> <path d="M45.609375,153.109375 C45.5156245,153.203125 45.3750009,153.25 45.1875,153.25 C44.9999991,153.25 44.8593755,153.203125 44.765625,153.109375 C41.0624815,149.03123 39.1875002,146.96875 39.140625,146.921875 C39.0468745,146.828125 39,146.687501 39,146.5 C39,146.312499 39.0468745,146.171875 39.140625,146.078125 L44.765625,139.890625 C45.0468764,139.609374 45.3281236,139.609374 45.609375,139.890625 C45.8906264,140.171876 45.8906264,140.453124 45.609375,140.734375 L40.8984375,145.9375 L60.9375,145.9375 C61.3125019,145.9375 61.5,146.124998 61.5,146.5 C61.5,146.875002 61.3125019,147.0625 60.9375,147.0625 L40.8984375,147.0625 L45.609375,152.265625 C45.8906264,152.546876 45.8906264,152.828124 45.609375,153.109375 Z" id="icon-arrow-left-ion-ios-arrow-thin-left---Ionicons"/> </g> </g> </g> </symbol><symbol viewBox="0 0 23 15" id="icon-arrow-right"><title>icon-arrow-right</title> <g id="icon-arrow-right-Desktop-HD" transform="translate(-1339.000000, -3784.000000)"> <g id="icon-arrow-right-gallery" transform="translate(100.000000, 3475.000000)"> <g id="icon-arrow-right-gallery-arrows" transform="translate(1200.000000, 266.000000)"> <path d="M54.890625,57.109375 C54.6093736,56.8281236 54.6093736,56.5468764 54.890625,56.265625 L59.6015625,51.0625 L39.5625,51.0625 C39.1874981,51.0625 39,50.8750019 39,50.5 C39,50.1249981 39.1874981,49.9375 39.5625,49.9375 L59.6015625,49.9375 L54.890625,44.734375 C54.6093736,44.4531236 54.6093736,44.1718764 54.890625,43.890625 C55.1718764,43.6093736 55.4531236,43.6093736 55.734375,43.890625 C59.4375185,47.9687704 61.3124998,50.0312498 61.359375,50.078125 C61.4531255,50.1718755 61.5,50.3124991 61.5,50.5 C61.5,50.6875009 61.4531255,50.8281245 61.359375,50.921875 L55.734375,57.109375 C55.6406245,57.2031255 55.5000009,57.25 55.3125,57.25 C55.1249991,57.25 54.9843755,57.2031255 54.890625,57.109375 Z" id="icon-arrow-right-ion-ios-arrow-thin-right---Ionicons"/> </g> </g> </g> </symbol><symbol viewBox="0 0 15 23" id="icon-arrow-up"><title>icon-arrow-up</title> <g id="icon-arrow-up-Tablet-Portrait" transform="translate(-744.000000, -3759.000000)"> <path d="M758.359375,3775.14062 C758.453125,3775.23438 758.5,3775.375 758.5,3775.5625 C758.5,3775.75 758.453125,3775.89062 758.359375,3775.98438 C754.28123,3779.68752 752.21875,3781.5625 752.171875,3781.60938 C752.078125,3781.70313 751.937501,3781.75 751.75,3781.75 C751.562499,3781.75 751.421875,3781.70313 751.328125,3781.60938 L745.140625,3775.98438 C744.859374,3775.70312 744.859374,3775.42188 745.140625,3775.14062 C745.421876,3774.85937 745.703124,3774.85937 745.984375,3775.14062 L751.1875,3779.85156 L751.1875,3759.8125 C751.1875,3759.4375 751.374998,3759.25 751.75,3759.25 C752.125002,3759.25 752.3125,3759.4375 752.3125,3759.8125 L752.3125,3779.85156 L757.515625,3775.14062 C757.796876,3774.85937 758.078124,3774.85937 758.359375,3775.14062 Z" id="icon-arrow-up-Back-to-top" transform="translate(751.714843, 3770.500000) rotate(-180.000000) translate(-751.714843, -3770.500000) "/> </g> </symbol><symbol viewBox="0 0 22.469 19.012" id="icon-cart"><title>icon-cart</title> <path id="icon-cart-icon-cart" d="M8.642,21.284a1.728,1.728,0,1,1-1.728-1.728A1.74,1.74,0,0,1,8.642,21.284Zm12.1,0a1.728,1.728,0,1,1-1.728-1.728A1.74,1.74,0,0,1,20.74,21.284ZM22.469,6.593v6.913a.885.885,0,0,1-.77.864L7.6,16.017a4.493,4.493,0,0,1,.175.945,2.047,2.047,0,0,1-.324.864H19.876a.864.864,0,0,1,0,1.728H6.049a.87.87,0,0,1-.864-.864,6.969,6.969,0,0,1,.824-1.85L3.618,5.728H.864A.864.864,0,1,1,.864,4H4.321c.9,0,.932,1.08,1.066,1.728H21.6a.87.87,0,0,1,.864.864Z" transform="translate(0 -4)"/> </symbol><symbol viewBox="0 0 20 20" id="icon-checkbox-checked"><title>icon-checkbox-checked</title> <g id="icon-checkbox-checked-Icon/Checkbox/Checked" transform="translate(-2.000000, -2.000000)"> <path d="M19.7777778,2 C21.0111111,2 22,3 22,4.22222222 L22,19.7777778 C22,21 21.0111111,22 19.7777778,22 L4.22222222,22 C2.98888889,22 2,21 2,19.7777778 L2,4.22222222 C2,3 2.98888889,2 4.22222222,2 L19.7777778,2 Z M9.77777778,17.5555556 L19.7777778,7.55555556 L18.2111111,5.97777778 L9.77777778,14.4111111 L5.78888889,10.4333333 L4.22222222,12 L9.77777778,17.5555556 Z" id="icon-checkbox-checked-icon-checked"/> </g> </symbol><symbol viewBox="0 0 20 20" id="icon-checkbox-unchecked"><title>icon-checkbox-unchecked</title> <g id="icon-checkbox-unchecked-Icon/Checkbox/Hover" transform="translate(-2.000000, -2.000000)"> <path d="M20,4 L20,20 L4,20 L4,4 L20,4 Z M19.7777778,2 L4.22222222,2 C3,2 2,3 2,4.22222222 L2,19.7777778 C2,21 3,22 4.22222222,22 L19.7777778,22 C21,22 22,21 22,19.7777778 L22,4.22222222 C22,3 21,2 19.7777778,2 Z" id="icon-checkbox-unchecked-icon-unchecked"/> </g> </symbol><symbol viewBox="0 0 16 10" id="icon-chevron-down"><title>icon-chevron-down</title> <g id="icon-chevron-down-Icon/Arrow-Down" transform="translate(-4.000000, -7.000000)"> <polygon id="icon-chevron-down-chevron-down" points="5.888 7 12 13.2135922 18.112 7 20 8.90938511 12 17 4 8.90938511"/> </g> </symbol><symbol viewBox="0 0 10 16" id="icon-chevron-left"><title>icon-chevron-left</title> <g id="icon-chevron-left-Icon/Arrow-Left" transform="translate(-7.000000, -4.000000)"> <polygon id="icon-chevron-left-chevron-left" points="17 5.888 10.7864078 12 17 18.112 15.0906149 20 7 12 15.0906149 4"/> </g> </symbol><symbol viewBox="0 0 10 16" id="icon-chevron-right"><title>icon-chevron-right</title> <g id="icon-chevron-right-Icon/Arrow-Right" transform="translate(-7.000000, -4.000000)"> <polygon id="icon-chevron-right-chevron-right" points="7 5.888 13.2135922 12 7 18.112 8.90938511 20 17 12 8.90938511 4"/> </g> </symbol><symbol viewBox="0 0 44.039 90.007" id="icon-chevron-thin-left"><title>icon-chevron-thin-left</title> <g id="icon-chevron-thin-left-Group_165" data-name="Group 165" transform="translate(42.517 88.607) rotate(180)" style="isolation: isolate"> <path id="icon-chevron-thin-left-Path_109" data-name="Path 109" d="M1.522,88.607l-3.045-2.594L37.1,40.684-1.428,1.4,1.428-1.4,42.517,40.494Z"/> </g> </symbol><symbol viewBox="0 0 44.039 90.007" id="icon-chevron-thin-right"><title>icon-chevron-thin-right</title> <g id="icon-chevron-thin-right-Group_164" data-name="Group 164" transform="translate(1.521 1.4)" style="isolation: isolate"> <path id="icon-chevron-thin-right-Path_109" data-name="Path 109" d="M24565.74-489.194l-3.043-2.594,38.621-45.328-38.527-39.284,2.855-2.8,41.09,41.895-1.187,1.392Z" transform="translate(-24564.219 577.801)"/> </g> </symbol><symbol viewBox="0 0 18 10" id="icon-chevron-up"><title>icon-chevron-up</title> <g id="icon-chevron-up-Icon/Arrow-Up" transform="translate(-3.000000, -7.000000)"> <polygon id="icon-chevron-up-chevron-up" points="5.888 17 12 10.7864078 18.112 17 20 15.0906149 12 7 4 15.0906149"/> </g> </symbol><symbol viewBox="0 0 16.389 16.092" id="icon-close-inline"><title>icon-close-inline</title> <g id="icon-close-inline-Group_3181" data-name="Group 3181" transform="translate(-1489.453 -1841.426)"> <path id="icon-close-inline-Path_17967" data-name="Path 17967" d="M3485.36,1857.287l-14.294-13.945,2.095-2.147,14.294,13.945Z" transform="translate(-1981.613 0.232)"/> <path id="icon-close-inline-Path_17968" data-name="Path 17968" d="M3473.161,1857.287l-2.095-2.147,14.294-13.945,2.095,2.147Z" transform="translate(-1981.613 0.232)"/> </g> </symbol><symbol viewBox="0 0 22.908 22.935" id="icon-close"><title>icon-close</title> <g id="icon-close-Group_2707" data-name="Group 2707" transform="translate(-2.745 0.954)"> <path id="icon-close-Path_17972" data-name="Path 17972" d="M-4970.992-674.173h-28.4a1,1,0,0,1-1-1,1,1,0,0,1,1-1h28.4a1,1,0,0,1,1,1A1,1,0,0,1-4970.992-674.173Z" transform="translate(4016.68 -3037.143) rotate(-45)" fill="#46c5d4"/> <path id="icon-close-Path_17973" data-name="Path 17973" d="M-4970.992-674.173h-28.4a1,1,0,0,1-1-1,1,1,0,0,1,1-1h28.4a1,1,0,0,1,1,1A1,1,0,0,1-4970.992-674.173Z" transform="translate(3061.842 4013.008) rotate(45)" fill="#46c5d4"/> </g> </symbol><symbol viewBox="0 0 16 20" id="icon-download"><title>icon-download</title> <g id="icon-download-Icon/Download" transform="translate(-4.000000, -2.000000)"> <path d="M4,20 L20,20 L20,22 L4,22 L4,20 Z M19.155177,9.78365351 L12.355055,16.6419096 C12.1606257,16.8380011 11.8440461,16.8393486 11.6479546,16.6449193 L11.644945,16.6419096 L4.844823,9.78365351 C4.6503937,9.58756204 4.65174116,9.27098242 4.84783263,9.07655313 C4.94147551,8.98370401 5.06800704,8.93160813 5.199878,8.93160813 L8.56357388,8.93160813 L8.56357388,2 L15.4364261,2 L15.4364261,8.93160813 L18.800122,8.93160813 C19.0762644,8.93160813 19.300122,9.15546576 19.300122,9.43160813 C19.300122,9.56347909 19.2480261,9.69001062 19.155177,9.78365351 Z" id="icon-download-icon-download"/> </g> </symbol><symbol viewBox="0 0 36.679 29.058" id="icon-envelope"><title>icon-envelope</title> <g id="icon-envelope-mail" transform="translate(1.741 1.25)"> <path id="icon-envelope-Path_5" data-name="Path 5" d="M5.32,2.75H31.878a4.575,4.575,0,0,1,4.57,4.57V27.238a4.575,4.575,0,0,1-4.57,4.57H5.32a4.575,4.575,0,0,1-4.57-4.57V7.32A4.575,4.575,0,0,1,5.32,2.75ZM31.878,29.308a2.072,2.072,0,0,0,2.07-2.07V7.32a2.072,2.072,0,0,0-2.07-2.07H5.32A2.072,2.072,0,0,0,3.25,7.32V27.238a2.072,2.072,0,0,0,2.07,2.07Z" transform="translate(-2 -4)"/> <path id="icon-envelope-Path_6" data-name="Path 6" d="M18.6,19.145.259,6.307,1.693,4.259,18.6,16.093,35.5,4.259l1.434,2.048Z" transform="translate(-2 -2.681)"/> </g> </symbol><symbol viewBox="0 0 19.956 20.454" id="icon-external-link"><title>icon-external-link</title> <g id="icon-external-link-icon-external-link" transform="translate(-383 -322.5)"> <g id="icon-external-link-Project-Thumb_Project-Only" data-name="Project-Thumb Project-Only" transform="translate(383 322.5)"> <g id="icon-external-link-Group-2"> <g id="icon-external-link-Combined-Shape-Copy-2" transform="translate(0 3.137)"> <path id="icon-external-link-Path_3212" data-name="Path 3212" d="M400.31,341.281H383V323.965h8.654v2.143h-6.511v13.031h13.025v-6.511h2.143Z" transform="translate(-383 -323.965)"/> </g> <g id="icon-external-link-Group" transform="translate(7.778)"> <g id="icon-external-link-Rectangle-10" transform="translate(0 1.113)"> <rect id="icon-external-link-Rectangle_474" data-name="Rectangle 474" width="13.762" height="1.967" transform="translate(0 9.731) rotate(-45)"/> </g> <g id="icon-external-link-Rectangle-11" transform="translate(3.367)"> <path id="icon-external-link-Path_3213" data-name="Path 3213" d="M397.013,331.739h-2.143v-7.1H388.2V322.5h8.812Z" transform="translate(-388.202 -322.5)"/> </g> </g> </g> </g> </g> </symbol><symbol viewBox="0 0 19 32" id="icon-facebook"><title>icon-facebook</title> <path d="M17.125 0.214v4.714h-2.804q-1.536 0-2.071 0.643t-0.536 1.929v3.375h5.232l-0.696 5.286h-4.536v13.554h-5.464v-13.554h-4.554v-5.286h4.554v-3.893q0-3.321 1.857-5.152t4.946-1.83q2.625 0 4.071 0.214z"/> </symbol><symbol viewBox="0 0 100 100" id="icon-g-bag"><title>icon-g-bag</title><path d="M99.17,83.37,96.43,50.48a91.8,91.8,0,0,0-1.27-10.84,13.06,13.06,0,0,0-3.73-7.27,13.1,13.1,0,0,0-7.56-3.11,95.18,95.18,0,0,0-10.13-.38V26.25h0a23.74,23.74,0,0,0-47.48,0v2.63a95.27,95.27,0,0,0-10.14.38,13.17,13.17,0,0,0-7.55,3.11,13.12,13.12,0,0,0-3.73,7.27A91.8,91.8,0,0,0,3.57,50.48L.83,83.37a49,49,0,0,0-.3,6.41,7.87,7.87,0,0,0,1.9,5.14,7.85,7.85,0,0,0,5,2.32,52.76,52.76,0,0,0,6.41.24H86.2a52.76,52.76,0,0,0,6.41-.24,7.21,7.21,0,0,0,6.86-7.46A49,49,0,0,0,99.17,83.37ZM50,7.79A18.45,18.45,0,0,1,68.46,26.25v2.64H31.53V26.25A18.46,18.46,0,0,1,50,7.79ZM93.69,91.34c-.2.22-.56.5-1.8.67a47.91,47.91,0,0,1-5.87.18H14A48,48,0,0,1,8.11,92c-1.23-.17-1.6-.45-1.8-.67s-.44-.6-.51-1.85a47.82,47.82,0,0,1,.3-5.86L8.81,51.1A91.92,91.92,0,0,1,10,40.76c.51-2.37,1.19-3.61,2.14-4.5s2.26-1.46,4.66-1.77a90.53,90.53,0,0,1,9.46-.33v13.2A2.63,2.63,0,0,0,28.89,50h0a2.64,2.64,0,0,0,2.64-2.63V34.17H68.46V47.36a2.64,2.64,0,0,0,5.28,0V34.15a90.53,90.53,0,0,1,9.46.34c2.4.31,3.7.89,4.66,1.77s1.63,2.13,2.14,4.49A92.36,92.36,0,0,1,91.19,51.1L93.9,83.63a47.82,47.82,0,0,1,.3,5.86C94.14,90.74,93.89,91.13,93.69,91.34Z"/></symbol><symbol viewBox="0 0 100 100" id="icon-g-boxes"><title>icon-g-boxes</title><path d="M98.5,49.64V24.55A2.66,2.66,0,0,0,96.75,22l-56-20.38a2.64,2.64,0,0,0-2.23.19L2.84,22.23A2.66,2.66,0,0,0,1.5,24.54V75.31a2.67,2.67,0,0,0,1.74,2.5l56,20.53a2.66,2.66,0,0,0,.92.16,2.56,2.56,0,0,0,1.32-.35L97.18,77.62a2.67,2.67,0,0,0,1.32-2.31V49.65ZM6.82,53.83,59.27,72.91a2.67,2.67,0,0,0,2.23-.19L93.18,54.61V73.77L59.93,92.91,6.82,73.45Zm86.36-5.35-33.25,19L6.82,48.16V28.34L59.27,47.43a2.64,2.64,0,0,0,2.23-.19L93.18,29.13ZM10.47,24,40.06,7.08l49.47,18L59.93,42Z"/></symbol><symbol viewBox="0 0 100 100" id="icon-g-process1"><title>icon-g-process1</title><g id="icon-g-process1-Group_2182" data-name="Group 2182"><g id="icon-g-process1-Path_17595" data-name="Path 17595"><path d="M40,50.58H3.09a2.09,2.09,0,0,1-1.6-.74A2.08,2.08,0,0,1,1,48.15C2.18,39.94,10.18,31.5,21.53,31.5h.19c12.51.11,19.54,10,20.35,16.7a2.14,2.14,0,0,1-.52,1.66A2.1,2.1,0,0,1,40,50.58ZM5.81,46.34H37.27a16.8,16.8,0,0,0-15.59-10.6h-.14A16.81,16.81,0,0,0,5.81,46.34Z"/></g><g id="icon-g-process1-Path_17596" data-name="Path 17596"><path d="M21.59,26.29h0A8.74,8.74,0,0,1,13,17.55,8.62,8.62,0,0,1,21.65,9h.09a8.6,8.6,0,0,1,8.55,8.61v.12A8.71,8.71,0,0,1,21.59,26.29Zm.07-13a4.37,4.37,0,0,0-4.45,4.34,4.49,4.49,0,0,0,4.39,4.48h0a4.48,4.48,0,0,0,4.43-4.39v-.05a4.37,4.37,0,0,0-4.35-4.38Zm6.51,4.46Z"/></g><g id="icon-g-process1-Path_17597" data-name="Path 17597"><path d="M96.5,94H59.63a2.12,2.12,0,0,1-1.6-.73,2.09,2.09,0,0,1-.5-1.69c1.19-8.22,9.19-16.65,20.54-16.65h.19c12.51.1,19.54,10,20.35,16.7A2.12,2.12,0,0,1,96.5,94ZM62.35,89.75H93.81A16.79,16.79,0,0,0,78.22,79.16h-.14A16.81,16.81,0,0,0,62.35,89.75Z"/></g><g id="icon-g-process1-Path_17598" data-name="Path 17598"><path d="M78.13,69.71h0A8.74,8.74,0,0,1,69.51,61a8.62,8.62,0,0,1,8.61-8.56h.07A8.61,8.61,0,0,1,86.82,61v.12h0A8.72,8.72,0,0,1,78.13,69.71Zm.07-13.06a4.41,4.41,0,0,0-3.15,1.26A4.36,4.36,0,0,0,73.75,61a4.48,4.48,0,0,0,4.39,4.48h0a4.45,4.45,0,0,0,4.42-4.39v0a4.36,4.36,0,0,0-4.34-4.41Z"/></g><g id="icon-g-process1-Path_17599" data-name="Path 17599"><path d="M44.2,88.94H28.68A15.56,15.56,0,0,1,13.14,73.4V62.59a2.12,2.12,0,0,1,4.24,0V73.4a11.31,11.31,0,0,0,11.3,11.3H44.2a2.12,2.12,0,0,1,0,4.24Z"/></g><g id="icon-g-process1-Path_17600" data-name="Path 17600"><path d="M77.85,42.5a2.11,2.11,0,0,1-2.11-2.12V29.57a11.32,11.32,0,0,0-11.31-11.3H48.91a2.12,2.12,0,1,1,0-4.24H64.43A15.56,15.56,0,0,1,80,29.57V40.38A2.12,2.12,0,0,1,77.85,42.5Z"/></g></g></symbol><symbol viewBox="0 0 100 100" id="icon-g-process2"><title>icon-g-process2</title><path d="M75.64,12.25H24.36A14.49,14.49,0,0,0,9.87,26.74V60.42A14.49,14.49,0,0,0,24.46,74.8l19-.13.1,9H32.39a2,2,0,1,0,0,4.08H64a2,2,0,0,0,0-4.08H47.64L47.51,72.6a2,2,0,0,0-2-2h0l-21,.15A10.43,10.43,0,0,1,13.94,60.4V26.74A10.41,10.41,0,0,1,24.36,16.33H75.64A10.43,10.43,0,0,1,86.06,26.74V60.4A10.43,10.43,0,0,1,75.64,70.82H56.19a2,2,0,1,0,0,4.07H75.64A14.51,14.51,0,0,0,90.13,60.4V26.74A14.51,14.51,0,0,0,75.64,12.25Z"/><path d="M49,32.81a2,2,0,0,0-2.88,0L27.17,51.75V46.57a2,2,0,0,0-4.08,0v10.1h0a2.85,2.85,0,0,0,0,.4s0,.1.05.16a1.87,1.87,0,0,0,.07.22l.09.18s.06.11.1.17a1.44,1.44,0,0,0,.22.27l0,0,0,0a2.65,2.65,0,0,0,.26.21l.19.1.16.09.26.08.12,0a1.75,1.75,0,0,0,.4,0H37a2,2,0,1,0,0-4.07h-6.9L49,35.69A2,2,0,0,0,49,32.81Z"/><path d="M51.38,54.81a2,2,0,0,0,2.88,0L73.2,35.87V41a2,2,0,1,0,4.07,0V31a1.72,1.72,0,0,0,0-.39,1,1,0,0,0,0-.18l-.06-.2A1.39,1.39,0,0,0,77,30s-.05-.1-.08-.14a1.94,1.94,0,0,0-.57-.57l-.14-.08a1.39,1.39,0,0,0-.21-.11L75.82,29,75.63,29a1.72,1.72,0,0,0-.39,0H63.41a2,2,0,1,0,0,4.07h6.91L51.38,51.93A2,2,0,0,0,51.38,54.81Z"/></symbol><symbol viewBox="0 0 100 100" id="icon-g-process3"><title>icon-g-process3</title><path d="M46.63,39.41c.86-.66,1.7-1.36,2.59-2.08l-1.6-2-2.8,2.24c-.13-.17-.22-.3-.33-.42a9.92,9.92,0,0,0-8.33-3.33,9.74,9.74,0,0,0-8.41,5.65,9.7,9.7,0,0,0,.62,10.16,10.22,10.22,0,0,0,18-9.38v0A.6.6,0,0,1,46.63,39.41ZM40.57,50.75a7.67,7.67,0,0,1-7.8-13.2,7.63,7.63,0,0,1,10,1.67,2.92,2.92,0,0,0-.32.21l-6.79,5.43L32.8,41.77,31,43.6l4.6,4.61,8.44-6.74h0A7.52,7.52,0,0,1,40.57,50.75Z"/><path d="M64.94,54.27a10.31,10.31,0,0,0,10.37-9.9,1.55,1.55,0,0,0,0-.22,10.25,10.25,0,0,0-20.5-.31h0A10.28,10.28,0,0,0,64.94,54.27Zm.13-17.92h0A7.64,7.64,0,0,1,72.73,44h0v.06a7.62,7.62,0,0,1-7.67,7.59h0a7.67,7.67,0,1,1,0-15.33Z"/><polygon points="62.25 48.75 65.14 45.75 67.9 48.7 69.81 46.82 66.79 43.96 69.7 41.2 67.83 39.24 64.98 42.32 62.21 39.48 60.37 41.22 63.28 44.04 60.34 46.92 62.25 48.75"/><path d="M75.55,12.38H24.45A14.44,14.44,0,0,0,10,26.83V60.38A14.44,14.44,0,0,0,24.55,74.72l18.93-.14.1,9H33.4a2,2,0,1,0,0,4.06H64.93a2,2,0,0,0,0-4.06H47.64l-.12-11a2,2,0,0,0-2-2h0l-21,.15A10.38,10.38,0,0,1,14.07,60.37V26.82A10.38,10.38,0,0,1,24.45,16.44h51.1A10.4,10.4,0,0,1,85.93,26.82V60.37A10.4,10.4,0,0,1,75.55,70.75H56.17a2,2,0,1,0,0,4.06H75.55A14.46,14.46,0,0,0,90,60.37V26.82A14.46,14.46,0,0,0,75.55,12.38Z"/></symbol><symbol viewBox="0 0 100 100" id="icon-g-process4"><title>icon-g-process4</title><path d="M95,26.63v-.7a19.11,19.11,0,0,0-12.57-17,18,18,0,0,0-6.2-1.07s0,0,0,0h0a.88.88,0,0,0-.23,0h0l-.21,0,0,0L75.44,8l0,0-.15.11-.06.06a.65.65,0,0,0-.11.12L75,8.43l-.07.12a.61.61,0,0,0,0,.12.61.61,0,0,0,0,.12l0,.15a.24.24,0,0,1,0,.08v.13s0,.08,0,.12,0,.06,0,.09a1.21,1.21,0,0,0,0,.18s0,0,0,.06a.56.56,0,0,0,.09.17s0,0,0,.05a1,1,0,0,0,.13.16l0,0a1.07,1.07,0,0,0,.16.14l0,0,.18.1a.05.05,0,0,0,0,0l.2.07h0l.21,0h.11l.93.07A16.24,16.24,0,0,1,91.88,22.94c.28,1.24.37,2.52.53,3.78v0a1.33,1.33,0,0,0,1.35,1.31h.1L94,28h.08l.16-.06.07,0,.15-.09.07,0a.57.57,0,0,0,.11-.11l.07-.06.09-.12.06-.09a.37.37,0,0,0,0-.11.61.61,0,0,0,.05-.12l0-.11,0-.14s0-.07,0-.1a.33.33,0,0,0,0-.1Z"/><path d="M100,26.42a38.75,38.75,0,0,0-.83-5.77,23.67,23.67,0,0,0-22-17.8,6.73,6.73,0,0,0-1.1,0c-.29,0-.71.11-.83.31a2.16,2.16,0,0,0-.39,1.32,1.13,1.13,0,0,0,.46.71,1.16,1.16,0,0,0,.82.22,24.12,24.12,0,0,1,6.37,1,21.25,21.25,0,0,1,14.9,20,1.88,1.88,0,0,0,.37,1.19,1.12,1.12,0,0,0,1,.41C99.58,28,100.1,27.46,100,26.42Z"/><path d="M83,14.76a13.17,13.17,0,0,0-6.75-1.89h-.33l-.13,0-.11,0-.13.05-.1,0-.12.07-.09.07-.1.09-.08.09-.08.1-.06.11a.61.61,0,0,0,0,.12.49.49,0,0,0,0,.11.74.74,0,0,0,0,.14s0,0,0,.06a.61.61,0,0,0,0,.14h0v.06s0,.06,0,.09a.68.68,0,0,0,0,.14l0,.11c0,.05,0,.09.05.13a.31.31,0,0,0,0,.1.75.75,0,0,0,.07.12l.07.09.09.1.08.07.12.09.09,0,.13.07.1,0,.14,0H76l.12,0h.06c.31,0,.62,0,.94.08a11.08,11.08,0,0,1,9.67,7.6,17.67,17.67,0,0,1,.66,3.67c.15,1.09,1.22,1.69,2,1a4.41,4.41,0,0,0,.75-1.57L90,26.11A13.89,13.89,0,0,0,83,14.76Z"/><path d="M64.29,23.68H14.49A14.08,14.08,0,0,0,.42,37.76v32.7a14.08,14.08,0,0,0,14.07,14h.1L33,84.3l.1,8.75H21.82a2,2,0,1,0,0,4H52.55a2,2,0,1,0,0-4H37.09L37,82.29a2,2,0,0,0-2-2h0l-20.42.15h-.07a10.13,10.13,0,0,1-10.12-10V37.76A10.12,10.12,0,0,1,14.49,27.64h49.8A10.13,10.13,0,0,1,74.4,37.76V70.45A10.12,10.12,0,0,1,64.29,80.56H45.4a2,2,0,1,0,0,4H64.29A14.08,14.08,0,0,0,78.36,70.45V37.76A14.09,14.09,0,0,0,64.29,23.68Z"/><path d="M27.87,67.17a2.53,2.53,0,0,0,1.75.71h0c1,0,2,0,2.93,0H33.8a1.39,1.39,0,0,0,.41,0,2.47,2.47,0,0,0,1.55-1l.1,0q.66.35,1.32.66a3.55,3.55,0,0,0,1.57.37H48.84a2.74,2.74,0,0,0,2.47-1.39c.35-.56.71-1.19,1.13-2a15.11,15.11,0,0,0,1.87-7.41V54.2a3.42,3.42,0,0,0-.65-2,3.69,3.69,0,0,0-3.18-1.59H45a18.57,18.57,0,0,0,1.08-7.16A2.78,2.78,0,0,0,44.66,41a3.44,3.44,0,0,0-2.26-.34,2.7,2.7,0,0,0-2.32,1.88,5.06,5.06,0,0,0-.18.61,17.53,17.53,0,0,1-3.08,6.37,2.43,2.43,0,0,1-2.09,1H29.8a3.44,3.44,0,0,0-.71.05,2.44,2.44,0,0,0-2,2.46v8c0,1.41,0,2.82,0,4.29A2.53,2.53,0,0,0,27.87,67.17Zm5.85-1.85a1,1,0,0,1,0,.11H29.58V53h4.13a.35.35,0,0,1,0,.07v6.12h0ZM42.5,50.26a2,2,0,0,0-.12.83,2,2,0,0,0,.68,1.42,2.08,2.08,0,0,0,1.47.52h6a1.32,1.32,0,0,1,1.1.51,1,1,0,0,1,.23.6v1c0,1,0,2-.05,3a12.44,12.44,0,0,1-1.66,5.41l-.93,1.62a.46.46,0,0,1-.44.26H38.86a1.68,1.68,0,0,1-.68-.18c-.36-.16-.72-.34-1.08-.53s-.6-.3-.94-.5V52.86a4.46,4.46,0,0,0,1.91-1.06,6.58,6.58,0,0,0,.71-.79A19.3,19.3,0,0,0,42.23,44l.15-.54a.35.35,0,0,1,.33-.29,2.5,2.5,0,0,1,.61,0,.36.36,0,0,1,.31.39A16.37,16.37,0,0,1,42.5,50.26Z"/></symbol><symbol viewBox="0 0 100 100" id="icon-g-screen"><title>icon-g-screen</title><path d="M94.39,70.42V30.27c0-9.3,0-13.95-2.89-16.84S84,10.54,74.66,10.54H25.34c-9.3,0-13.95,0-16.84,2.89h0C5.61,16.32,5.61,21,5.61,30.27V70.42A8.22,8.22,0,0,0,.68,78a11.5,11.5,0,0,0,11.5,11.51H87.82A11.5,11.5,0,0,0,99.32,78,8.22,8.22,0,0,0,94.39,70.42ZM10.86,20.11c.29-2.15.75-2.81,1.13-3.19s1-.84,3.18-1.13a86.33,86.33,0,0,1,10.17-.32H74.66a86.26,86.26,0,0,1,10.17.32c2.14.29,2.81.75,3.18,1.13s.85,1,1.13,3.18a86.33,86.33,0,0,1,.32,10.17V69.73H10.54V30.27A86.09,86.09,0,0,1,10.86,20.11Zm77,64.42H12.18A6.58,6.58,0,0,1,5.61,78a3.29,3.29,0,0,1,3.26-3.29H91.13A3.29,3.29,0,0,1,94.39,78,6.58,6.58,0,0,1,87.82,84.53Z" fill-rule="evenodd"/></symbol><symbol viewBox="0 0 27 32" id="icon-instagram"><title>icon-instagram</title> <path d="M18.286 16q0-1.893-1.339-3.232t-3.232-1.339-3.232 1.339-1.339 3.232 1.339 3.232 3.232 1.339 3.232-1.339 1.339-3.232zM20.75 16q0 2.929-2.054 4.982t-4.982 2.054-4.982-2.054-2.054-4.982 2.054-4.982 4.982-2.054 4.982 2.054 2.054 4.982zM22.679 8.679q0 0.679-0.482 1.161t-1.161 0.482-1.161-0.482-0.482-1.161 0.482-1.161 1.161-0.482 1.161 0.482 0.482 1.161zM13.714 4.75q-0.125 0-1.366-0.009t-1.884 0-1.723 0.054-1.839 0.179-1.277 0.33q-0.893 0.357-1.571 1.036t-1.036 1.571q-0.196 0.518-0.33 1.277t-0.179 1.839-0.054 1.723 0 1.884 0.009 1.366-0.009 1.366 0 1.884 0.054 1.723 0.179 1.839 0.33 1.277q0.357 0.893 1.036 1.571t1.571 1.036q0.518 0.196 1.277 0.33t1.839 0.179 1.723 0.054 1.884 0 1.366-0.009 1.366 0.009 1.884 0 1.723-0.054 1.839-0.179 1.277-0.33q0.893-0.357 1.571-1.036t1.036-1.571q0.196-0.518 0.33-1.277t0.179-1.839 0.054-1.723 0-1.884-0.009-1.366 0.009-1.366 0-1.884-0.054-1.723-0.179-1.839-0.33-1.277q-0.357-0.893-1.036-1.571t-1.571-1.036q-0.518-0.196-1.277-0.33t-1.839-0.179-1.723-0.054-1.884 0-1.366 0.009zM27.429 16q0 4.089-0.089 5.661-0.179 3.714-2.214 5.75t-5.75 2.214q-1.571 0.089-5.661 0.089t-5.661-0.089q-3.714-0.179-5.75-2.214t-2.214-5.75q-0.089-1.571-0.089-5.661t0.089-5.661q0.179-3.714 2.214-5.75t5.75-2.214q1.571-0.089 5.661-0.089t5.661 0.089q3.714 0.179 5.75 2.214t2.214 5.75q0.089 1.571 0.089 5.661z"/> </symbol><symbol viewBox="0 0 27 32" id="icon-linkedin"><title>icon-linkedin</title> <path d="M6.232 11.161v17.696h-5.893v-17.696h5.893zM6.607 5.696q0.018 1.304-0.902 2.179t-2.42 0.875h-0.036q-1.464 0-2.357-0.875t-0.893-2.179q0-1.321 0.92-2.188t2.402-0.866 2.375 0.866 0.911 2.188zM27.429 18.714v10.143h-5.875v-9.464q0-1.875-0.723-2.938t-2.259-1.063q-1.125 0-1.884 0.616t-1.134 1.527q-0.196 0.536-0.196 1.446v9.875h-5.875q0.036-7.125 0.036-11.554t-0.018-5.286l-0.018-0.857h5.875v2.571h-0.036q0.357-0.571 0.732-1t1.009-0.929 1.554-0.777 2.045-0.277q3.054 0 4.911 2.027t1.857 5.938z"/> </symbol><symbol viewBox="0 0 30.398 23.052" id="icon-menu"><title>icon-menu</title> <g id="icon-menu-Group_2422" data-name="Group 2422" transform="translate(1 1)"> <path id="icon-menu-Path_17972" data-name="Path 17972" d="M-4970.992-674.173h-28.4a1,1,0,0,1-1-1,1,1,0,0,1,1-1h28.4a1,1,0,0,1,1,1A1,1,0,0,1-4970.992-674.173Z" transform="translate(4999.39 675.173)" fill="#46c5d4"/> <path id="icon-menu-Path_17973" data-name="Path 17973" d="M-4970.992-674.173h-28.4a1,1,0,0,1-1-1,1,1,0,0,1,1-1h28.4a1,1,0,0,1,1,1A1,1,0,0,1-4970.992-674.173Z" transform="translate(4999.39 685.699)" fill="#46c5d4"/> <path id="icon-menu-Path_17974" data-name="Path 17974" d="M-4970.992-674.173h-28.4a1,1,0,0,1-1-1,1,1,0,0,1,1-1h28.4a1,1,0,0,1,1,1A1,1,0,0,1-4970.992-674.173Z" transform="translate(4999.39 696.225)" fill="#46c5d4"/> </g> </symbol><symbol viewBox="0 0 31.682 31.74" id="icon-phone"><title>icon-phone</title> <path id="icon-phone-phone" d="M28.358,32.49c-.125,0-.252-.006-.377-.017l-.023,0a30.435,30.435,0,0,1-13.2-4.7,30.057,30.057,0,0,1-9.181-9.18A30.431,30.431,0,0,1,.881,5.331l0-.019A4.185,4.185,0,0,1,5.042.75H9.475a4.184,4.184,0,0,1,4.143,3.6l0,.011a17.615,17.615,0,0,0,.959,3.849,4.2,4.2,0,0,1-.943,4.412l0,0L12.456,13.8a22.242,22.242,0,0,0,7.036,7.036l1.18-1.18a4.184,4.184,0,0,1,4.415-.941,17.609,17.609,0,0,0,3.847.958l.011,0a4.184,4.184,0,0,1,3.6,4.231v4.385a4.185,4.185,0,0,1-4.184,4.2Zm-.142-2.506c.047,0,.095.006.142.006A1.685,1.685,0,0,0,30.043,28.3V23.86A1.684,1.684,0,0,0,28.6,22.151a20.121,20.121,0,0,1-4.391-1.094,1.684,1.684,0,0,0-1.778.376L19.9,23.967l-.828-.471A24.737,24.737,0,0,1,9.8,14.224L9.326,13.4l2.534-2.534a1.689,1.689,0,0,0,.378-1.776,20.125,20.125,0,0,1-1.1-4.393A1.692,1.692,0,0,0,9.475,3.25H5.044A1.685,1.685,0,0,0,3.368,5.078,27.919,27.919,0,0,0,7.677,17.24l.006.009A27.54,27.54,0,0,0,16.1,25.668l.01.006A27.923,27.923,0,0,0,28.217,29.984Z" transform="translate(-0.862 -0.75)"/> </symbol><symbol viewBox="0 0 78.986 78.979" id="icon-play"><title>icon-play</title> <g id="icon-play-Component_17_2" data-name="Component 17 &#x2013; 2" transform="translate(0.001 0)"> <path id="icon-play-Path_17433" data-name="Path 17433" d="M903.938-542.041a39.5,39.5,0,0,1-39.5,39.487,39.5,39.5,0,0,1-39.484-39.51,39.493,39.493,0,0,1,39.49-39.469A39.48,39.48,0,0,1,903.938-542.041Zm-4.477.014a35.013,35.013,0,0,0-35.013-35.037A35.034,35.034,0,0,0,829.426-542.1a35.014,35.014,0,0,0,35.021,35.064A35,35,0,0,0,899.461-542.027Z" transform="translate(-824.953 581.533)"/> <path id="icon-play-Path_17434" data-name="Path 17434" d="M858.823-536.57q0-8.143,0-16.284a2.221,2.221,0,0,1,2.071-2.323,2.349,2.349,0,0,1,1.316.3q8.952,4.607,17.909,9.2,6.846,3.517,13.693,7.033a2.234,2.234,0,0,1,1.379,2.006,2.194,2.194,0,0,1-1.337,2.13q-3.658,1.868-7.307,3.754l-24.354,12.516a2.24,2.24,0,0,1-2.97-.661,2.373,2.373,0,0,1-.4-1.421Q858.824-528.445,858.823-536.57Zm29.246.008-24.752-12.719v25.439Z" transform="translate(-832 576.051)"/> </g> </symbol><symbol viewBox="0 0 19 18.095" id="icon-plus"><title>icon-plus</title> <path id="icon-plus-icon-plus" d="M342,88.143v1.81h-8.55V98.1h-1.9V89.952H323v-1.81h8.55V80h1.9v8.143Z" transform="translate(-323 -80)" fill-rule="evenodd"/> </symbol><symbol viewBox="0 0 22 22" id="icon-remove"><title>icon-remove</title> <path id="icon-remove-icon-remove" d="M14.25,3.25a11,11,0,1,0,11,11A11.012,11.012,0,0,0,14.25,3.25Zm4.628,14.3-1.331,1.331-3.3-3.3-3.3,3.3L9.622,17.547l3.3-3.3-3.3-3.3,1.331-1.331,3.3,3.3,3.3-3.3,1.331,1.331-3.3,3.3Z" transform="translate(-3.25 -3.25)"/> </symbol><symbol viewBox="0 0 30 32" id="icon-search"><title>icon-search</title> <path d="M20.571 14.857q0-3.304-2.348-5.652t-5.652-2.348-5.652 2.348-2.348 5.652 2.348 5.652 5.652 2.348 5.652-2.348 2.348-5.652zM29.714 29.714q0 0.929-0.679 1.607t-1.607 0.679q-0.964 0-1.607-0.679l-6.125-6.107q-3.196 2.214-7.125 2.214-2.554 0-4.884-0.991t-4.018-2.679-2.679-4.018-0.991-4.884 0.991-4.884 2.679-4.018 4.018-2.679 4.884-0.991 4.884 0.991 4.018 2.679 2.679 4.018 0.991 4.884q0 3.929-2.214 7.125l6.125 6.125q0.661 0.661 0.661 1.607z"/> </symbol><symbol viewBox="0 0 19.047 14.285" id="icon-tick"><title>icon-tick</title> <path id="icon-tick-icon-tick" d="M0,10.619l1.9-1.9,4.762,4.762L17.142,3l1.9,1.9L6.666,17.285Z" transform="translate(0 -3)"/> </symbol><symbol viewBox="0 0 30 32" id="icon-twitter"><title>icon-twitter</title> <path d="M28.929 7.286q-1.196 1.75-2.893 2.982 0.018 0.25 0.018 0.75 0 2.321-0.679 4.634t-2.063 4.437-3.295 3.759-4.607 2.607-5.768 0.973q-4.839 0-8.857-2.589 0.625 0.071 1.393 0.071 4.018 0 7.161-2.464-1.875-0.036-3.357-1.152t-2.036-2.848q0.589 0.089 1.089 0.089 0.768 0 1.518-0.196-2-0.411-3.313-1.991t-1.313-3.67v-0.071q1.214 0.679 2.607 0.732-1.179-0.786-1.875-2.054t-0.696-2.75q0-1.571 0.786-2.911 2.161 2.661 5.259 4.259t6.634 1.777q-0.143-0.679-0.143-1.321 0-2.393 1.688-4.080t4.080-1.688q2.5 0 4.214 1.821 1.946-0.375 3.661-1.393-0.661 2.054-2.536 3.179 1.661-0.179 3.321-0.893z"/> </symbol><symbol viewBox="0 0 185.2 52" id="logo-aircraft"><title>logo-aircraft</title> <g> <path d="M25.8,46.4c1-5.6,2.6-12.5,4.6-19.1c-6.5,2.3-12.4,4.7-17,7.1c-3.8,4.7-5.2,7-5.9,9.6c-0.2,0.6-0.3,1-0.8,1
		c-0.5,0-2.2-0.8-4-2.2c-2.5-2-2.5-4.1,0.3-8C9.5,26.1,25.9,9.6,31.9,5c3.7-2.8,4.9-3.6,6.3-3.6c1,0,2.9,1,4.9,1.6
		c2.5,0.7,2.9,2.3,1.7,4.5c-2.4,4.3-4.7,9.2-6.9,14.4c0.2,0.1,0.5,0.3,0.7,0.5c0.8,0.8,1,1.2,1,1.5c0,0.2-0.1,0.4-1.4,0.8l-1.6,0.5
		c-2.3,5.8-4.4,11.9-6.4,17.9c-0.5,1.7-1.1,2.2-2.1,2.9c-0.3,0.2-1.1,0.6-1.6,0.9C26.2,47.1,25.7,47.1,25.8,46.4z M31.7,23
		c1.6-4.7,3.1-9.1,4.6-12.6c-4.4,3.9-10.3,9.5-16,15.8C24.1,25.1,27.9,24,31.7,23z"/> <g> <path d="M53.5,16.9c0.9,0,1.7-0.1,2.7-1.2c0.7-0.7,2.5-2.3,4-3.9c0.5-0.5,0.2-0.8-0.4-1.3c-0.7-0.6-2.2-1.4-3.4-1.7
			c-0.5-0.1-1,0.2-1.9,1.3c-1.2,1.3-2.6,3.2-3.5,5.2c-0.2,0.5-0.2,0.9,0,1.1C51.4,16.5,52.6,16.9,53.5,16.9z"/> <path d="M78.4,17.4c-0.3,0-0.8,0.3-1.9,0.9c-3.4,1.9-6.4,3.8-9.7,6.6c0.7-2.6,0.1-3.5-0.7-4c-0.8-0.4-2.2-0.8-3.2-0.8
			c-0.7-0.1-1,0.1-1.2,0.4c-0.8,1.5-3.3,5.4-6.9,10.3l0,0c-5.2,7-9,8.7-11.8,8.9c0.7-2.2,2.7-5.3,6-10c2.1-2.9,3.3-5,3.3-6.2
			c0-2.3-3.8-2.6-5.3-2.6c-0.5,0-0.7,0.1-1,0.4c-1.3,1.5-4.3,5.6-6.8,9.5c-4.5,7-4.4,8.3-1.7,10.8c1.7,1.4,2.5,2,4.3,2
			c2.6,0,6-2.4,8.9-5.4c0,0.2-0.1,0.5-0.1,0.7c0,1.3,0.6,2.1,2,3.1c1.3,0.9,2.3,1.3,3.2,1.3c1,0,1.3-0.4,3.9-3.9
			c6.9-9.4,12.7-14.9,18.3-19c0.7-0.5,1.1-0.9,1.1-1.5C79.1,18.3,78.9,17.4,78.4,17.4z"/> </g> <path d="M118.5,18.6c-0.4-0.4-0.5-0.7-1-0.7c-0.5,0-1.3,0.3-2.6,1c-2.7,1.3-5.8,3.4-9.2,6.5c0.2-0.8,0.4-1.6,0.4-2.3
		c0-0.8-0.2-1.6-1-2c-0.8-0.5-1.6-0.5-2.6-0.9c-0.4-0.1-0.8-0.1-1,0.3c-0.9,1.7-4.6,6.9-6.9,10c0,0,0,0,0,0l-0.2,0.2
		c-4.1,5.6-10.3,8.6-15.6,8.6c-0.5,0-0.9-0.1-1.3-0.2c0.7-5.6,6-10,15.3-13.4c1-0.4,0.4-1.5-0.5-2.8c-1.6-2.2-2.6-2.9-4.1-2.9
		c-2.9,0-9.1,2.6-13.6,8.1c-3.9,4.9-4.1,9.1-0.8,13.1c1.4,1.7,3,2.3,4.9,2.3c3.6,0,8.1-2.6,11.8-6c-0.2,0.6-0.3,1.2-0.3,1.6
		c0,2,1.6,2.5,3.4,3c1.7,0.5,2.2,0.7,2.6,0.7c0.7,0,1.2-0.5,3.6-4.1c5.8-8.8,13-15.7,19-19.4c0.2-0.1,0.3-0.2,0.3-0.4
		S118.7,18.8,118.5,18.6z"/> <path d="M125.3,36.8c-3.2,4.5-5.9,6.3-7.8,6.3c-2.4,0-4.8-2-6.2-4.5c-1.3-2.3-1.2-5.3,2.2-9.7c3.9-5.1,9.8-8.2,13.3-8.2
		c1.8,0,3.3,1.6,4.3,3.2c0.4-0.5,0.7-0.7,1.3-0.7c0.5,0,1.6,0.3,3.4,1.1c1.4,0.7,2,1.4,2,2c0,0.8-0.5,2-2.4,5.9
		c-1.2,2.5-2.3,5-2.5,6.7c1.6-0.7,3.2-1.7,4.6-3.2c0.1-0.1,0.3-0.1,0.4,0c0.1,0.2,0.1,0.7,0.1,0.9s-0.1,0.6-0.5,1.1
		c-1.9,2.4-4.9,5.6-8.3,5.6C126.4,43.5,124.3,41.9,125.3,36.8z M130,25.7c-2.6,0.7-5.1,2.4-7.2,4.4c-2.8,2.8-4.7,6.2-4.3,8.6
		C122,37.5,125.5,33.9,130,25.7z"/> <path d="M134.2,50.9c-1,0-1.3-0.6-0.8-1.9c1.4-3.8,5.8-12,9.8-18.2c1.6-2.4,3.1-4.6,4.4-6.7c-0.9-0.1-1.1-0.4-1.6-1
		c-0.8-0.9-1.3-2.1-1.3-2.3c0-0.2,0.2-0.2,0.7-0.4c1.1-0.1,2.8-0.1,4.7-0.2c5.6-8.2,9.8-13.4,13.8-17.2c1.5-1.4,2.3-1.7,3.1-1.7
		c1.1,0,2.3,0.2,3.3,0.7s1.4,1.2,1.4,2.2c0,1.9-1.5,5.6-2.9,7.7c-0.8,1.2-2.1,1.3-2.9,1.2c-0.7-0.1-1.3,0.1-1.9-0.3
		c-1.3,1.8-2.8,4.1-4.6,7l6.5-0.4c2.3-3.2,4.7-6.7,7.3-10c0.4-0.5,0.6-0.7,1.5-0.4c0.8,0.3,1.3,0.6,2.4,0.9c1,0.2,1.6,0.8,1.6,1.7
		c0,1.9-1.2,4.3-2.9,7.1c3.3-0.4,5.6-0.8,7.2-1.2c0.6-0.2,0.8,0.1,0.7,0.4c-0.2,0.4-0.9,1.3-1.3,1.6c-0.7,0.6-1.7,1.3-4.6,1.8
		c-0.9,0.2-2.3,0.4-4,0.6c-4.1,6.2-9.1,12.7-9.7,17.2c3.8-0.5,7.8-2.6,10.4-5.2c0.4-0.4,0.5-0.2,0.5,0.1c0,0.3-0.2,0.8-0.4,1.6
		c-0.2,0.7-0.7,1.4-1.2,1.9c-2.6,2.7-7.1,6.1-11.3,6.1c-3.6,0-5.7-2-6.5-3.5c-0.8-1.5-0.4-4.5,2.7-9.4c1.4-2.2,3.2-4.9,5.2-7.8
		l-6.5,0.5c-5.1,8.2-13.2,20.3-16.5,24.2c-1.5,1.7-2.5,2.3-3.9,2.6C135.8,50.5,135.1,50.9,134.2,50.9z"/> </g> </symbol><symbol viewBox="0 0 58.74 82.779" id="logo-prima-p"><title>logo-prima-p</title> <path id="logo-prima-p-Vector" d="M17.018,33.374a16.524,16.524,0,0,0,16.9-16.862c0-10-7.682-16.513-16.9-16.513C8.745,0,0,5.815,0,16.513S8.036,33.374,17.018,33.374Z" transform="translate(12.295 11.939)" fill="none"/> <path id="logo-prima-p-Vector-2" data-name="Vector" d="M12.2,4.09a5.955,5.955,0,0,1-1.789,4.241,6.172,6.172,0,0,1-8.624,0A5.955,5.955,0,0,1,0,4.091V16.015a5.965,5.965,0,0,0,1.79,4.252,6.182,6.182,0,0,0,8.642,0,5.965,5.965,0,0,0,1.79-4.252V.372c0-.126-.011-.248-.019-.372Z" transform="translate(0 60.751)" fill="#fff"/> <path id="logo-prima-p-Vector-3" data-name="Vector" d="M6.1,70.845a6.152,6.152,0,0,0,4.314-1.758A5.955,5.955,0,0,0,12.2,64.841V51.6a29.818,29.818,0,0,0,17.138,5.376c.528,0,1.052-.015,1.573-.042,14.815-.09,27.826-11.114,27.826-28.369,0-14.944-9.76-25.123-22-27.642A30.036,30.036,0,0,0,21.974.917,29.708,29.708,0,0,0,9.043,7.936l-.1.094c-.2.185-.393.371-.585.562-.246.244-.491.488-.728.74L7.6,9.359a27.148,27.148,0,0,0-5.317,8.051l-.007.016c-.133.306-.255.617-.378.928A27.6,27.6,0,0,0,.006,28.5c0,.532-.016,1.052.014,1.578l-.015,0v9.1c0,.026,0,.051,0,.077V64.842a5.955,5.955,0,0,0,1.787,4.245A6.153,6.153,0,0,0,6.1,70.845ZM29.313,11.939c9.218,0,16.9,6.512,16.9,16.513a16.524,16.524,0,0,1-16.9,16.862c-8.982,0-17.018-6.163-17.018-16.862S21.041,11.939,29.313,11.939Z" transform="translate(0 0)"/> </symbol><symbol viewBox="0 0 151.285 59.772" id="logo-prima"><title>logo-prima</title> <path id="logo-prima-Vector" d="M8.983,0A8.7,8.7,0,0,0,0,8.938a8.863,8.863,0,0,0,8.983,9.126,8.761,8.761,0,0,0,9.046-9.126A8.812,8.812,0,0,0,8.983,0Z" transform="translate(126.722 21.411)" fill="none"/> <path id="logo-prima-Vector-2" data-name="Vector" d="M9.046,18.064a8.863,8.863,0,0,0,8.983-9.126A8.7,8.7,0,0,0,9.046,0,8.812,8.812,0,0,0,0,8.938,8.761,8.761,0,0,0,9.046,18.064Z" transform="translate(6.536 21.411)" fill="none"/> <path id="logo-prima-Vector-3" data-name="Vector" d="M19.6,3.969A3.111,3.111,0,0,0,17.275.255c-.3-.064-.6-.109-.913-.146h-.005A10.759,10.759,0,0,0,14.539,0h-.028c-.032,0-.062,0-.094,0l-.265.01q-.233.011-.484.032A13.083,13.083,0,0,0,6.713,2.713c-.1.081-.2.168-.306.252A3.311,3.311,0,0,0,3.141.318,3.222,3.222,0,0,0,0,3.591V27.068a3.222,3.222,0,0,0,3.141,3.273A3.3,3.3,0,0,0,6.47,27.068V19.452c0-7.8,2.325-13.343,7.852-13.343C16.207,6.109,19.034,6.8,19.6,3.969Z" transform="translate(35.398 15.114)"/> <path id="logo-prima-Vector-4" data-name="Vector" d="M4.08,0A3.969,3.969,0,0,0,0,3.851,3.969,3.969,0,0,0,4.08,7.7,3.881,3.881,0,0,0,8.1,3.851,3.881,3.881,0,0,0,4.08,0Z" transform="translate(57.479 0)"/> <path id="logo-prima-Vector-5" data-name="Vector" d="M6.471,26.75V3.273A3.3,3.3,0,0,0,3.141,0,3.222,3.222,0,0,0,0,3.273V26.75a3.222,3.222,0,0,0,3.141,3.273,3.3,3.3,0,0,0,3.33-3.273Z" transform="translate(58.357 15.432)"/> <path id="logo-prima-Vector-6" data-name="Vector" d="M46.108,13.141c0-8-3.735-12.666-10.375-13.061A14.2,14.2,0,0,0,25.727,3.025a12.161,12.161,0,0,0-1.508,1.489A9.106,9.106,0,0,0,16.163.063,13.2,13.2,0,0,0,6.378,2.87,3.18,3.18,0,0,0,3.33.364,3.3,3.3,0,0,0,0,3.637V27.114a3.222,3.222,0,0,0,3.141,3.273A3.3,3.3,0,0,0,6.47,27.114V14.274c0-5.728,3.644-7.868,7.412-7.868,3.455,0,5.968,2.643,5.968,7.175V27.114a3.222,3.222,0,0,0,3.141,3.273,3.3,3.3,0,0,0,3.329-3.273V14.274c0-4.721,2.827-7.868,7.1-7.868,3.769,0,6.219,2.706,6.219,7.3V27.114a3.222,3.222,0,0,0,3.141,3.273,3.3,3.3,0,0,0,3.329-3.273Z" transform="translate(69.813 15.068)"/> <path id="logo-prima-Vector-7" data-name="Vector" d="M6.486,2.214A3.243,3.243,0,1,1,0,2.214V8.668a3.248,3.248,0,1,0,6.5,0V.2c0-.068-.006-.134-.01-.2Z" transform="translate(0 47.831)" fill="#38c2d2"/> <path id="logo-prima-Vector-8" data-name="Vector" d="M1.4,0C.486,0,0,.721,0,1.75S.486,3.512,1.4,3.512c.776,0,1.355-.572,1.355-1.59V1.59C2.756.56,2.177,0,1.4,0Z" transform="translate(117.76 52.919)" fill="none"/> <path id="logo-prima-Vector-9" data-name="Vector" d="M0,1c0,.412.312.652.8.652.683,0,1.32-.355,1.32-1.03V0L.926.24C.394.343,0,.515,0,1Z" transform="translate(21.554 54.921)" fill="none"/> <path id="logo-prima-Vector-10" data-name="Vector" d="M1.355,0C.579,0,0,.56,0,1.59v.332c0,1.018.579,1.59,1.355,1.59.915,0,1.4-.721,1.4-1.762S2.269,0,1.355,0Z" transform="translate(128.45 52.919)" fill="none"/> <path id="logo-prima-Vector-11" data-name="Vector" d="M1.343,0A1.345,1.345,0,0,0,0,1.114H2.524A1.084,1.084,0,0,0,1.343,0Z" transform="translate(43.251 52.823)" fill="none"/> <path id="logo-prima-Vector-12" data-name="Vector" d="M1.355,0C.579,0,0,.56,0,1.59v.332c0,1.018.579,1.59,1.355,1.59.915,0,1.4-.721,1.4-1.762S2.269,0,1.355,0Z" transform="translate(69.753 52.919)" fill="none"/> <path id="logo-prima-Vector-13" data-name="Vector" d="M1.355,0C.579,0,0,.56,0,1.59v.332c0,1.018.579,1.59,1.355,1.59.915,0,1.4-.721,1.4-1.762S2.269,0,1.355,0Z" transform="translate(85.92 52.919)" fill="none"/> <path id="logo-prima-Vector-14" data-name="Vector" d="M1.343,0A1.345,1.345,0,0,0,0,1.114H2.524A1.084,1.084,0,0,0,1.343,0Z" transform="translate(92.542 52.823)" fill="none"/> <path id="logo-prima-Vector-15" data-name="Vector" d="M1.378,0C.533,0,0,.663,0,1.8S.533,3.6,1.378,3.6,2.744,2.94,2.744,1.8,2.223,0,1.378,0Z" transform="translate(104.515 52.874)" fill="none"/> <path id="logo-prima-Vector-16" data-name="Vector" d="M5.3,4.553V2.094C5.3.7,4.377,0,2.837,0A2.579,2.579,0,0,0,.185,1.842l1.54.286a.957.957,0,0,1,1.054-.8c.672,0,.938.32.938.835v.092L2.2,2.54C.972,2.757,0,3.26,0,4.461A1.859,1.859,0,0,0,2.072,6.235a2.382,2.382,0,0,0,1.807-.663c.266.5.891.709,1.922.56v-1.2C5.442,4.977,5.3,4.874,5.3,4.553Zm-1.586-.56c0,.675-.637,1.03-1.32,1.03-.487,0-.8-.24-.8-.652,0-.48.394-.652.926-.755l1.193-.24Z" transform="translate(19.956 51.546)" fill="#38c2d2"/> <path id="logo-prima-Vector-17" data-name="Vector" d="M1.621.884V.037H0V6.054H1.621V3A1.38,1.38,0,0,1,3.115,1.559a3.825,3.825,0,0,1,.521.034V.025A3.673,3.673,0,0,0,3.242,0,1.756,1.756,0,0,0,1.621.884Z" transform="translate(26.671 51.624)" fill="#38c2d2"/> <path id="logo-prima-Vector-18" data-name="Vector" d="M2.409,5.835V3.055H3.647V1.716H2.409V0H.811V1.716H0V3.055H.811V6.166C.811,7.4,1.459,7.8,2.686,7.8a5.4,5.4,0,0,0,1.042-.092V6.384a4.293,4.293,0,0,1-.556.034C2.7,6.418,2.409,6.349,2.409,5.835Z" transform="translate(30.665 49.945)" fill="#38c2d2"/> <path id="logo-prima-Vector-19" data-name="Vector" d="M3.288,0A2.154,2.154,0,0,0,1.621.733V.115H0V6.132H1.621V2.655a1.109,1.109,0,0,1,1.123-1.19c.695,0,.972.481.972,1.155V6.133H5.338V2.163A1.965,1.965,0,0,0,3.288,0Z" transform="translate(35.366 51.546)" fill="#38c2d2"/> <path id="logo-prima-Vector-20" data-name="Vector" d="M2.964,0A2.963,2.963,0,0,0,0,3.123,2.928,2.928,0,0,0,3.022,6.258,2.774,2.774,0,0,0,5.709,4.542l-1.366-.48a1.273,1.273,0,0,1-1.308.881A1.488,1.488,0,0,1,1.552,3.478H5.743V3.009A2.728,2.728,0,0,0,2.964,0ZM1.609,2.391a1.345,1.345,0,0,1,1.343-1.11,1.085,1.085,0,0,1,1.181,1.11Z" transform="translate(41.642 51.546)" fill="#38c2d2"/> <path id="logo-prima-Vector-21" data-name="Vector" d="M1.621.884V.037H0V6.054H1.621V3A1.38,1.38,0,0,1,3.115,1.559a3.825,3.825,0,0,1,.521.034V.025A3.673,3.673,0,0,0,3.242,0,1.756,1.756,0,0,0,1.621.884Z" transform="translate(48.345 51.624)" fill="#38c2d2"/> <path id="logo-prima-Vector-22" data-name="Vector" d="M3.126,2.405c-.752-.149-1.158-.217-1.158-.607,0-.332.335-.549.845-.549a2.058,2.058,0,0,1,1.632.8l.926-1.007A3.243,3.243,0,0,0,2.86,0C1.4,0,.371.8.371,1.959.371,3.252,1.459,3.5,2.443,3.7s1.424.24,1.424.7c0,.435-.475.618-1.019.618A2.386,2.386,0,0,1,1.007,4.1L0,5.116A3.6,3.6,0,0,0,2.814,6.26c1.459,0,2.64-.778,2.64-2.037C5.454,2.863,4.192,2.622,3.126,2.405Z" transform="translate(52.177 51.544)" fill="#38c2d2"/> <path id="logo-prima-Vector-23" data-name="Vector" d="M3.288,2.082a2.154,2.154,0,0,0-1.668.732V0H0V8.214H1.621V4.736a1.109,1.109,0,0,1,1.123-1.19c.695,0,.972.481.972,1.155V8.214H5.338V4.244A1.965,1.965,0,0,0,3.288,2.082Z" transform="translate(58.58 49.465)" fill="#38c2d2"/> <path id="logo-prima-Vector-24" data-name="Vector" d="M0,0H1.656V1.487H0Z" transform="translate(65.192 49.465)" fill="#38c2d2"/> <path id="logo-prima-Vector-25" data-name="Vector" d="M0,0H1.621V6.017H0Z" transform="translate(65.215 51.661)" fill="#38c2d2"/> <path id="logo-prima-Vector-26" data-name="Vector" d="M3.323,0a2.139,2.139,0,0,0-1.7.732V.116H0V8.17H1.621V5.516a2.111,2.111,0,0,0,1.7.744C5,6.26,5.975,4.841,5.975,3.125S5,0,3.323,0ZM2.941,4.887c-.776,0-1.355-.572-1.355-1.59V2.965c0-1.03.579-1.59,1.355-1.59.915,0,1.4.721,1.4,1.75s-.486,1.762-1.4,1.762Z" transform="translate(68.167 51.545)" fill="#38c2d2"/> <path id="logo-prima-Vector-27" data-name="Vector" d="M3.126,2.405c-.752-.149-1.158-.217-1.158-.607,0-.332.335-.549.845-.549a2.058,2.058,0,0,1,1.632.8l.926-1.007A3.243,3.243,0,0,0,2.86,0C1.4,0,.371.8.371,1.959.371,3.252,1.459,3.5,2.443,3.7s1.424.24,1.424.7c0,.435-.475.618-1.019.618A2.386,2.386,0,0,1,1.007,4.1L0,5.116A3.6,3.6,0,0,0,2.814,6.26c1.459,0,2.64-.778,2.64-2.037C5.454,2.863,4.192,2.622,3.126,2.405Z" transform="translate(74.512 51.544)" fill="#38c2d2"/> <path id="logo-prima-Vector-28" data-name="Vector" d="M3.323,2.082a2.139,2.139,0,0,0-1.7.732V0H0V8.214H1.621V7.6a2.111,2.111,0,0,0,1.7.744C5,8.34,5.975,6.921,5.975,5.205S5,2.082,3.323,2.082ZM2.941,6.967c-.776,0-1.355-.572-1.355-1.59V5.045c0-1.03.579-1.59,1.355-1.59.915,0,1.4.721,1.4,1.75S3.856,6.967,2.941,6.967Z" transform="translate(84.333 49.465)" fill="#38c2d2"/> <path id="logo-prima-Vector-29" data-name="Vector" d="M2.964,0A2.963,2.963,0,0,0,0,3.123,2.928,2.928,0,0,0,3.022,6.258,2.774,2.774,0,0,0,5.709,4.542l-1.366-.48a1.273,1.273,0,0,1-1.308.881A1.488,1.488,0,0,1,1.552,3.478H5.743V3.009A2.728,2.728,0,0,0,2.964,0ZM1.609,2.391a1.345,1.345,0,0,1,1.343-1.11,1.085,1.085,0,0,1,1.181,1.11Z" transform="translate(90.933 51.546)" fill="#38c2d2"/> <path id="logo-prima-Vector-30" data-name="Vector" d="M3.057,3.958,1.679,0H0L2.188,5.777l-.2.48a.754.754,0,0,1-.833.549c-.185,0-.289-.011-.463-.023V8.077a4.725,4.725,0,0,0,.637.034A2.216,2.216,0,0,0,3.624,6.36L6.032,0H4.4Z" transform="translate(96.815 51.661)" fill="#38c2d2"/> <path id="logo-prima-Vector-31" data-name="Vector" d="M2.988,0A2.911,2.911,0,0,0,0,3.123,2.914,2.914,0,0,0,2.988,6.258,2.914,2.914,0,0,0,5.975,3.123,2.91,2.91,0,0,0,2.988,0Zm0,4.931c-.845,0-1.378-.664-1.378-1.808s.533-1.8,1.378-1.8,1.366.663,1.366,1.8S3.833,4.931,2.988,4.931Z" transform="translate(102.905 51.546)" fill="#38c2d2"/> <path id="logo-prima-Vector-32" data-name="Vector" d="M3.288,0A2.154,2.154,0,0,0,1.621.733V.115H0V6.132H1.621V2.655a1.109,1.109,0,0,1,1.123-1.19c.695,0,.972.481.972,1.155V6.133H5.338V2.163A1.965,1.965,0,0,0,3.288,0Z" transform="translate(109.864 51.546)" fill="#38c2d2"/> <path id="logo-prima-Vector-33" data-name="Vector" d="M4.354,2.814a2.138,2.138,0,0,0-1.7-.732C.972,2.082,0,3.5,0,5.205S.972,8.34,2.651,8.34a2.11,2.11,0,0,0,1.7-.744v.618H5.975V0H4.354Zm.035,2.563c0,1.018-.579,1.59-1.355,1.59-.915,0-1.4-.721-1.4-1.762s.486-1.75,1.4-1.75c.776,0,1.355.56,1.355,1.59Z" transform="translate(116.128 49.465)" fill="#38c2d2"/> <path id="logo-prima-Vector-34" data-name="Vector" d="M3.323,0a2.139,2.139,0,0,0-1.7.732V.116H0V8.17H1.621V5.516a2.111,2.111,0,0,0,1.7.744C5,6.26,5.975,4.841,5.975,3.125S5,0,3.323,0ZM2.941,4.887c-.776,0-1.355-.572-1.355-1.59V2.965c0-1.03.579-1.59,1.355-1.59.915,0,1.4.721,1.4,1.75S3.856,4.887,2.941,4.887Z" transform="translate(126.864 51.545)" fill="#38c2d2"/> <path id="logo-prima-Vector-35" data-name="Vector" d="M1.355,0C.579,0,0,.56,0,1.59v.332c0,1.018.579,1.59,1.355,1.59.915,0,1.4-.721,1.4-1.762S2.269,0,1.355,0Z" transform="translate(14.779 52.919)" fill="none"/> <path id="logo-prima-Vector-36" data-name="Vector" d="M3.323,0a2.139,2.139,0,0,0-1.7.732V.116H0V8.17H1.621V5.516a2.111,2.111,0,0,0,1.7.744C5,6.26,5.975,4.841,5.975,3.125S5,0,3.323,0ZM2.941,4.887c-.776,0-1.355-.572-1.355-1.59V2.965c0-1.03.579-1.59,1.355-1.59.915,0,1.4.721,1.4,1.75S3.856,4.887,2.941,4.887Z" transform="translate(13.193 51.545)" fill="#38c2d2"/> <path id="logo-prima-Vector-37" data-name="Vector" d="M1.621.884V.037H0V6.054H1.621V3A1.38,1.38,0,0,1,3.115,1.559a3.825,3.825,0,0,1,.521.034V.025A3.673,3.673,0,0,0,3.242,0,1.756,1.756,0,0,0,1.621.884Z" transform="translate(133.811 51.624)" fill="#38c2d2"/> <path id="logo-prima-Vector-38" data-name="Vector" d="M0,0H1.621V6.017H0Z" transform="translate(138.338 51.661)" fill="#38c2d2"/> <path id="logo-prima-Vector-39" data-name="Vector" d="M0,0H1.656V1.487H0Z" transform="translate(138.314 49.465)" fill="#38c2d2"/> <path id="logo-prima-Vector-40" data-name="Vector" d="M3.288,0A2.154,2.154,0,0,0,1.621.733V.115H0V6.132H1.621V2.655a1.109,1.109,0,0,1,1.123-1.19c.695,0,.973.481.973,1.155V6.133H5.338V2.163A1.965,1.965,0,0,0,3.288,0Z" transform="translate(141.29 51.546)" fill="#38c2d2"/> <path id="logo-prima-Vector-41" data-name="Vector" d="M2.409,5.835V3.055H3.648V1.716H2.409V0H.811V1.716H0V3.055H.811V6.166C.811,7.4,1.459,7.8,2.686,7.8a5.4,5.4,0,0,0,1.042-.092V6.384a4.293,4.293,0,0,1-.556.034C2.7,6.418,2.409,6.349,2.409,5.835Z" transform="translate(147.276 49.945)" fill="#38c2d2"/> <path id="logo-prima-Vector-42" data-name="Vector" d="M31.219,15.422A15.18,15.18,0,0,0,30.212,9.93c-.065-.168-.13-.337-.2-.5l0-.009a14.719,14.719,0,0,0-2.826-4.358l-.013-.014c-.126-.136-.256-.269-.387-.4-.1-.1-.206-.2-.311-.3l-.054-.051A15.741,15.741,0,0,0,11.692.5C5.188,1.86,0,7.37,0,15.458,0,24.8,6.916,30.764,14.79,30.813c.277.015.555.023.836.023a15.655,15.655,0,0,0,9.186-2.963A3.19,3.19,0,0,0,27.89,30.5a3.3,3.3,0,0,0,3.33-3.273V16.274l-.008,0C31.228,15.992,31.219,15.711,31.219,15.422Zm-15.578,9.1a8.863,8.863,0,0,1-8.983-9.126,8.7,8.7,0,0,1,8.983-8.938,8.812,8.812,0,0,1,9.046,8.938,8.761,8.761,0,0,1-9.046,9.126Z" transform="translate(120.064 14.954)"/> <path id="logo-prima-Vector-43" data-name="Vector" d="M3.243,38.345A3.246,3.246,0,0,0,6.486,35.1V27.931a15.652,15.652,0,0,0,9.11,2.91c.28,0,.559-.008.836-.023,7.875-.049,14.79-6.015,14.79-15.355,0-8.088-5.188-13.6-11.692-14.961A15.695,15.695,0,0,0,4.807,4.3l-.054.051c-.1.1-.209.2-.311.3-.131.132-.261.264-.387.4l-.013.014A14.719,14.719,0,0,0,1.215,9.424l0,.009c-.071.166-.136.334-.2.5A15.18,15.18,0,0,0,0,15.427c0,.288-.009.57.007.854l-.008,0V21.2c0,.014,0,.027,0,.042V35.1a3.246,3.246,0,0,0,3.243,3.249ZM15.581,6.462A8.7,8.7,0,0,1,24.564,15.4a8.863,8.863,0,0,1-8.983,9.126A8.761,8.761,0,0,1,6.535,15.4,8.812,8.812,0,0,1,15.581,6.462Z" transform="translate(0 14.949)"/> </symbol><symbol viewBox="0 0 595.483 301.001" id="shape-blob"><title>shape-blob</title> <g transform="translate(16935 4283.483)"> <path id="shape-blob-Subtraction_25" data-name="Subtraction 25" d="M1489.986,379.606a150.714,150.714,0,0,1-33.5-3.758,149.351,149.351,0,0,1-58.213-27.564,151.3,151.3,0,0,1-23.064-22.141,150.438,150.438,0,0,0-47.852-32.576,149.058,149.058,0,0,0-28.318-8.87,151.258,151.258,0,0,0-62.05.244,149.233,149.233,0,0,0-55.62,24.631,151.11,151.11,0,0,0-22.615,19.9,31.668,31.668,0,0,1-3.23,2.952,149.931,149.931,0,0,1-48.389,34.059,148.485,148.485,0,0,1-28.869,9.3,150.207,150.207,0,0,1-31.108,3.248H1045.5V80.182h1.662a150.235,150.235,0,0,1,30.9,3.2,148.589,148.589,0,0,1,54.539,23.655,150.808,150.808,0,0,1,22.354,19.14,29.413,29.413,0,0,1,2.909,2.708,151.152,151.152,0,0,0,22.707,20.294,150.143,150.143,0,0,0,26.5,15.383,149.191,149.191,0,0,0,29.587,9.755,151.407,151.407,0,0,0,61.986.4,149.223,149.223,0,0,0,27.99-8.629,149.976,149.976,0,0,0,25.356-13.658,151.076,151.076,0,0,0,22.132-18.1,150.579,150.579,0,0,1,50.748-39.9,149.188,149.188,0,0,1,31.193-10.983,151.357,151.357,0,0,1,64.152-.805,149.177,149.177,0,0,1,53.635,22.571,150.445,150.445,0,0,1,54.345,66,149.252,149.252,0,0,1,8.74,28.157,151.458,151.458,0,0,1,0,60.46,149.176,149.176,0,0,1-22.57,53.635,150.44,150.44,0,0,1-65.995,54.346,149.241,149.241,0,0,1-28.156,8.74A151.1,151.1,0,0,1,1489.986,379.606Z" transform="translate(-17980 -4362.588)"/> <path id="shape-blob-Subtraction_25_-_Outline" data-name="Subtraction 25 - Outline" d="M1489.986,380.106a151.214,151.214,0,0,1-33.609-3.77,149.849,149.849,0,0,1-58.408-27.656,151.8,151.8,0,0,1-23.128-22.2,149.934,149.934,0,0,0-47.679-32.454,148.554,148.554,0,0,0-28.222-8.841,150.758,150.758,0,0,0-61.844.243,148.732,148.732,0,0,0-55.433,24.549,150.614,150.614,0,0,0-22.54,19.838,32.038,32.038,0,0,1-3.255,2.979,150.432,150.432,0,0,1-48.529,34.15,148.99,148.99,0,0,1-28.966,9.328,150.707,150.707,0,0,1-31.212,3.259H1045V79.682h2.162a150.741,150.741,0,0,1,31,3.214,149.092,149.092,0,0,1,54.723,23.734,151.328,151.328,0,0,1,22.409,19.183,29.811,29.811,0,0,1,2.937,2.738,150.652,150.652,0,0,0,22.631,20.226,149.643,149.643,0,0,0,26.416,15.332,148.692,148.692,0,0,0,29.488,9.722,150.906,150.906,0,0,0,61.781.4,148.719,148.719,0,0,0,27.9-8.6,149.477,149.477,0,0,0,25.271-13.612A150.566,150.566,0,0,0,1373.753,134a151.08,151.08,0,0,1,50.9-40.012,149.7,149.7,0,0,1,31.3-11.019,151.857,151.857,0,0,1,64.365-.808,149.681,149.681,0,0,1,53.815,22.646,150.946,150.946,0,0,1,54.526,66.216,149.759,149.759,0,0,1,8.77,28.251,151.959,151.959,0,0,1,0,60.66,149.673,149.673,0,0,1-22.646,53.815,150.939,150.939,0,0,1-66.214,54.527,149.74,149.74,0,0,1-28.25,8.77A151.6,151.6,0,0,1,1489.986,380.106Zm-221.375-99a151.288,151.288,0,0,1,30.532,3.106,149.619,149.619,0,0,1,54.092,22.97,151.905,151.905,0,0,1,22.332,18.614l.027.03a150.127,150.127,0,0,0,50.264,38.857,148.607,148.607,0,0,0,30.742,10.682,149.5,149.5,0,1,0-.425-291.416,148.917,148.917,0,0,0-58.6,28.137,150.642,150.642,0,0,0-23.07,22.576l-.016.02-.018.018a151.583,151.583,0,0,1-22.205,18.155,150.481,150.481,0,0,1-25.441,13.7,149.726,149.726,0,0,1-28.084,8.658,151.906,151.906,0,0,1-62.192-.4,149.689,149.689,0,0,1-29.686-9.788,150.64,150.64,0,0,1-26.593-15.434,151.659,151.659,0,0,1-22.783-20.361,28.9,28.9,0,0,0-2.859-2.661l-.022-.018-.02-.02a149.4,149.4,0,0,0-48.039-33.511,148,148,0,0,0-28.6-9.14,149.733,149.733,0,0,0-30.792-3.192H1046v297.85h1.162a149.7,149.7,0,0,0,31-3.237,148.1,148.1,0,0,0,54.656-23.892,150.33,150.33,0,0,0,22.342-19.319l.022-.023.025-.02a31.187,31.187,0,0,0,3.179-2.9,150.864,150.864,0,0,1,49.088-35.1,149.677,149.677,0,0,1,29.409-9.587A151.469,151.469,0,0,1,1268.611,281.1Z" transform="translate(-17980 -4362.588)"/> </g> </symbol><symbol viewBox="0 0 128 255" id="shape-half-circle"><title>shape-half-circle</title><path id="shape-half-circle-Subtraction_62" data-name="Subtraction 62" d="M.5,255H0V0H.5A129,129,0,0,1,26.2,2.59,126.88,126.88,0,0,1,71.79,21.77,127.9,127.9,0,0,1,118,77.87a126.82,126.82,0,0,1,7.43,23.93,128.88,128.88,0,0,1,0,51.39,126.72,126.72,0,0,1-19.19,45.59A127.75,127.75,0,0,1,50.13,245,126.82,126.82,0,0,1,26.2,252.4,127.54,127.54,0,0,1,.5,255Z"/></symbol><symbol viewBox="0 0 150.5 255" id="shape-inverted-circle"><title>shape-inverted-circle</title><path id="shape-inverted-circle-Subtraction_24" data-name="Subtraction 24" d="M150.57,255H2.21a173.32,173.32,0,0,0,28.58-2.74A168.37,168.37,0,0,0,58,244.9a158.9,158.9,0,0,0,25.09-11.61,147.86,147.86,0,0,0,22.23-15.66,134,134,0,0,0,18.6-19.42,123.18,123.18,0,0,0,13.69-21.94,114.29,114.29,0,0,0,8.45-23.8,109.54,109.54,0,0,0,0-50,113.88,113.88,0,0,0-8.45-23.8,123.26,123.26,0,0,0-13.69-22,133.89,133.89,0,0,0-18.6-19.41A147,147,0,0,0,82.64,21.42,159,159,0,0,0,57,9.7,169.92,169.92,0,0,0,29.19,2.47,174.1,174.1,0,0,0,0,0H150.57Z"/></symbol></svg>